<svg xmlns="http://www.w3.org/2000/svg" xmlns:xlink="http://www.w3.org/1999/xlink" width="100" zoomAndPan="magnify" viewBox="0 0 75 37.5" height="50" preserveAspectRatio="xMidYMid meet" version="1.0"><defs><g/><clipPath id="3f5b709332"><path d="M 2.417969 1.40625 L 36.613281 1.40625 L 36.613281 35.601562 L 2.417969 35.601562 Z M 2.417969 1.40625 " clip-rule="nonzero"/></clipPath><clipPath id="2daa104650"><path d="M 19.515625 1.40625 C 10.074219 1.40625 2.417969 9.0625 2.417969 18.503906 C 2.417969 27.945312 10.074219 35.601562 19.515625 35.601562 C 28.957031 35.601562 36.613281 27.945312 36.613281 18.503906 C 36.613281 9.0625 28.957031 1.40625 19.515625 1.40625 Z M 19.515625 1.40625 " clip-rule="nonzero"/></clipPath><linearGradient x1="0.000000138528" gradientTransform="matrix(0.133571, 0, 0, 0.133571, 2.417763, 1.40625)" y1="128" x2="256.000004" gradientUnits="userSpaceOnUse" y2="128" id="7afacff814"><stop stop-opacity="1" stop-color="rgb(65.098572%, 65.098572%, 65.098572%)" offset="0"/><stop stop-opacity="1" stop-color="rgb(65.234375%, 65.234375%, 65.234375%)" offset="0.0078125"/><stop stop-opacity="1" stop-color="rgb(65.507507%, 65.507507%, 65.507507%)" offset="0.015625"/><stop stop-opacity="1" stop-color="rgb(65.78064%, 65.78064%, 65.78064%)" offset="0.0234375"/><stop stop-opacity="1" stop-color="rgb(66.053772%, 66.053772%, 66.053772%)" offset="0.03125"/><stop stop-opacity="1" stop-color="rgb(66.325378%, 66.325378%, 66.325378%)" offset="0.0390625"/><stop stop-opacity="1" stop-color="rgb(66.598511%, 66.598511%, 66.598511%)" offset="0.046875"/><stop stop-opacity="1" stop-color="rgb(66.871643%, 66.871643%, 66.871643%)" offset="0.0546875"/><stop stop-opacity="1" stop-color="rgb(67.14325%, 67.14325%, 67.14325%)" offset="0.0625"/><stop stop-opacity="1" stop-color="rgb(67.416382%, 67.416382%, 67.416382%)" offset="0.0703125"/><stop stop-opacity="1" stop-color="rgb(67.689514%, 67.689514%, 67.689514%)" offset="0.078125"/><stop stop-opacity="1" stop-color="rgb(67.961121%, 67.961121%, 67.961121%)" offset="0.0859375"/><stop stop-opacity="1" stop-color="rgb(68.234253%, 68.234253%, 68.234253%)" offset="0.09375"/><stop stop-opacity="1" stop-color="rgb(68.507385%, 68.507385%, 68.507385%)" offset="0.101562"/><stop stop-opacity="1" stop-color="rgb(68.778992%, 68.778992%, 68.778992%)" offset="0.109375"/><stop stop-opacity="1" stop-color="rgb(69.052124%, 69.052124%, 69.052124%)" offset="0.117187"/><stop stop-opacity="1" stop-color="rgb(69.325256%, 69.325256%, 69.325256%)" offset="0.125"/><stop stop-opacity="1" stop-color="rgb(69.596863%, 69.596863%, 69.596863%)" offset="0.132812"/><stop stop-opacity="1" stop-color="rgb(69.869995%, 69.869995%, 69.869995%)" offset="0.140625"/><stop stop-opacity="1" stop-color="rgb(70.143127%, 70.143127%, 70.143127%)" offset="0.148438"/><stop stop-opacity="1" stop-color="rgb(70.41626%, 70.41626%, 70.41626%)" offset="0.15625"/><stop stop-opacity="1" stop-color="rgb(70.687866%, 70.687866%, 70.687866%)" offset="0.164062"/><stop stop-opacity="1" stop-color="rgb(70.960999%, 70.960999%, 70.960999%)" offset="0.171875"/><stop stop-opacity="1" stop-color="rgb(71.234131%, 71.234131%, 71.234131%)" offset="0.179688"/><stop stop-opacity="1" stop-color="rgb(71.505737%, 71.505737%, 71.505737%)" offset="0.1875"/><stop stop-opacity="1" stop-color="rgb(71.77887%, 71.77887%, 71.77887%)" offset="0.195312"/><stop stop-opacity="1" stop-color="rgb(72.052002%, 72.052002%, 72.052002%)" offset="0.203125"/><stop stop-opacity="1" stop-color="rgb(72.323608%, 72.323608%, 72.323608%)" offset="0.210937"/><stop stop-opacity="1" stop-color="rgb(72.596741%, 72.596741%, 72.596741%)" offset="0.21875"/><stop stop-opacity="1" stop-color="rgb(72.869873%, 72.869873%, 72.869873%)" offset="0.226562"/><stop stop-opacity="1" stop-color="rgb(73.141479%, 73.141479%, 73.141479%)" offset="0.234375"/><stop stop-opacity="1" stop-color="rgb(73.414612%, 73.414612%, 73.414612%)" offset="0.242188"/><stop stop-opacity="1" stop-color="rgb(73.687744%, 73.687744%, 73.687744%)" offset="0.25"/><stop stop-opacity="1" stop-color="rgb(73.959351%, 73.959351%, 73.959351%)" offset="0.257813"/><stop stop-opacity="1" stop-color="rgb(74.232483%, 74.232483%, 74.232483%)" offset="0.265625"/><stop stop-opacity="1" stop-color="rgb(74.505615%, 74.505615%, 74.505615%)" offset="0.273438"/><stop stop-opacity="1" stop-color="rgb(74.778748%, 74.778748%, 74.778748%)" offset="0.28125"/><stop stop-opacity="1" stop-color="rgb(75.050354%, 75.050354%, 75.050354%)" offset="0.289062"/><stop stop-opacity="1" stop-color="rgb(75.323486%, 75.323486%, 75.323486%)" offset="0.296875"/><stop stop-opacity="1" stop-color="rgb(75.596619%, 75.596619%, 75.596619%)" offset="0.304688"/><stop stop-opacity="1" stop-color="rgb(75.868225%, 75.868225%, 75.868225%)" offset="0.3125"/><stop stop-opacity="1" stop-color="rgb(76.141357%, 76.141357%, 76.141357%)" offset="0.320312"/><stop stop-opacity="1" stop-color="rgb(76.41449%, 76.41449%, 76.41449%)" offset="0.328125"/><stop stop-opacity="1" stop-color="rgb(76.686096%, 76.686096%, 76.686096%)" offset="0.335937"/><stop stop-opacity="1" stop-color="rgb(76.959229%, 76.959229%, 76.959229%)" offset="0.34375"/><stop stop-opacity="1" stop-color="rgb(77.232361%, 77.232361%, 77.232361%)" offset="0.351563"/><stop stop-opacity="1" stop-color="rgb(77.503967%, 77.503967%, 77.503967%)" offset="0.359375"/><stop stop-opacity="1" stop-color="rgb(77.7771%, 77.7771%, 77.7771%)" offset="0.367188"/><stop stop-opacity="1" stop-color="rgb(78.050232%, 78.050232%, 78.050232%)" offset="0.375"/><stop stop-opacity="1" stop-color="rgb(78.321838%, 78.321838%, 78.321838%)" offset="0.382812"/><stop stop-opacity="1" stop-color="rgb(78.594971%, 78.594971%, 78.594971%)" offset="0.390625"/><stop stop-opacity="1" stop-color="rgb(78.868103%, 78.868103%, 78.868103%)" offset="0.398438"/><stop stop-opacity="1" stop-color="rgb(79.141235%, 79.141235%, 79.141235%)" offset="0.40625"/><stop stop-opacity="1" stop-color="rgb(79.412842%, 79.412842%, 79.412842%)" offset="0.414062"/><stop stop-opacity="1" stop-color="rgb(79.685974%, 79.685974%, 79.685974%)" offset="0.421875"/><stop stop-opacity="1" stop-color="rgb(79.959106%, 79.959106%, 79.959106%)" offset="0.429687"/><stop stop-opacity="1" stop-color="rgb(80.230713%, 80.230713%, 80.230713%)" offset="0.4375"/><stop stop-opacity="1" stop-color="rgb(80.503845%, 80.503845%, 80.503845%)" offset="0.445312"/><stop stop-opacity="1" stop-color="rgb(80.776978%, 80.776978%, 80.776978%)" offset="0.453125"/><stop stop-opacity="1" stop-color="rgb(81.048584%, 81.048584%, 81.048584%)" offset="0.460938"/><stop stop-opacity="1" stop-color="rgb(81.321716%, 81.321716%, 81.321716%)" offset="0.46875"/><stop stop-opacity="1" stop-color="rgb(81.594849%, 81.594849%, 81.594849%)" offset="0.476562"/><stop stop-opacity="1" stop-color="rgb(81.866455%, 81.866455%, 81.866455%)" offset="0.484375"/><stop stop-opacity="1" stop-color="rgb(82.139587%, 82.139587%, 82.139587%)" offset="0.492188"/><stop stop-opacity="1" stop-color="rgb(82.41272%, 82.41272%, 82.41272%)" offset="0.5"/><stop stop-opacity="1" stop-color="rgb(82.684326%, 82.684326%, 82.684326%)" offset="0.507812"/><stop stop-opacity="1" stop-color="rgb(82.957458%, 82.957458%, 82.957458%)" offset="0.515625"/><stop stop-opacity="1" stop-color="rgb(83.230591%, 83.230591%, 83.230591%)" offset="0.523438"/><stop stop-opacity="1" stop-color="rgb(83.503723%, 83.503723%, 83.503723%)" offset="0.53125"/><stop stop-opacity="1" stop-color="rgb(83.77533%, 83.77533%, 83.77533%)" offset="0.539062"/><stop stop-opacity="1" stop-color="rgb(84.048462%, 84.048462%, 84.048462%)" offset="0.546875"/><stop stop-opacity="1" stop-color="rgb(84.321594%, 84.321594%, 84.321594%)" offset="0.554688"/><stop stop-opacity="1" stop-color="rgb(84.593201%, 84.593201%, 84.593201%)" offset="0.5625"/><stop stop-opacity="1" stop-color="rgb(84.866333%, 84.866333%, 84.866333%)" offset="0.570312"/><stop stop-opacity="1" stop-color="rgb(85.139465%, 85.139465%, 85.139465%)" offset="0.578125"/><stop stop-opacity="1" stop-color="rgb(85.411072%, 85.411072%, 85.411072%)" offset="0.585938"/><stop stop-opacity="1" stop-color="rgb(85.684204%, 85.684204%, 85.684204%)" offset="0.59375"/><stop stop-opacity="1" stop-color="rgb(85.957336%, 85.957336%, 85.957336%)" offset="0.601562"/><stop stop-opacity="1" stop-color="rgb(86.228943%, 86.228943%, 86.228943%)" offset="0.609375"/><stop stop-opacity="1" stop-color="rgb(86.502075%, 86.502075%, 86.502075%)" offset="0.617188"/><stop stop-opacity="1" stop-color="rgb(86.775208%, 86.775208%, 86.775208%)" offset="0.625"/><stop stop-opacity="1" stop-color="rgb(87.046814%, 87.046814%, 87.046814%)" offset="0.632812"/><stop stop-opacity="1" stop-color="rgb(87.319946%, 87.319946%, 87.319946%)" offset="0.640625"/><stop stop-opacity="1" stop-color="rgb(87.593079%, 87.593079%, 87.593079%)" offset="0.648438"/><stop stop-opacity="1" stop-color="rgb(87.866211%, 87.866211%, 87.866211%)" offset="0.65625"/><stop stop-opacity="1" stop-color="rgb(88.137817%, 88.137817%, 88.137817%)" offset="0.664062"/><stop stop-opacity="1" stop-color="rgb(88.41095%, 88.41095%, 88.41095%)" offset="0.671875"/><stop stop-opacity="1" stop-color="rgb(88.684082%, 88.684082%, 88.684082%)" offset="0.679688"/><stop stop-opacity="1" stop-color="rgb(88.955688%, 88.955688%, 88.955688%)" offset="0.6875"/><stop stop-opacity="1" stop-color="rgb(89.228821%, 89.228821%, 89.228821%)" offset="0.695312"/><stop stop-opacity="1" stop-color="rgb(89.501953%, 89.501953%, 89.501953%)" offset="0.703125"/><stop stop-opacity="1" stop-color="rgb(89.77356%, 89.77356%, 89.77356%)" offset="0.710938"/><stop stop-opacity="1" stop-color="rgb(90.046692%, 90.046692%, 90.046692%)" offset="0.71875"/><stop stop-opacity="1" stop-color="rgb(90.319824%, 90.319824%, 90.319824%)" offset="0.726562"/><stop stop-opacity="1" stop-color="rgb(90.591431%, 90.591431%, 90.591431%)" offset="0.734375"/><stop stop-opacity="1" stop-color="rgb(90.864563%, 90.864563%, 90.864563%)" offset="0.742188"/><stop stop-opacity="1" stop-color="rgb(91.137695%, 91.137695%, 91.137695%)" offset="0.75"/><stop stop-opacity="1" stop-color="rgb(91.409302%, 91.409302%, 91.409302%)" offset="0.757812"/><stop stop-opacity="1" stop-color="rgb(91.682434%, 91.682434%, 91.682434%)" offset="0.765625"/><stop stop-opacity="1" stop-color="rgb(91.955566%, 91.955566%, 91.955566%)" offset="0.773438"/><stop stop-opacity="1" stop-color="rgb(92.228699%, 92.228699%, 92.228699%)" offset="0.78125"/><stop stop-opacity="1" stop-color="rgb(92.500305%, 92.500305%, 92.500305%)" offset="0.789062"/><stop stop-opacity="1" stop-color="rgb(92.773438%, 92.773438%, 92.773438%)" offset="0.796875"/><stop stop-opacity="1" stop-color="rgb(93.04657%, 93.04657%, 93.04657%)" offset="0.804688"/><stop stop-opacity="1" stop-color="rgb(93.318176%, 93.318176%, 93.318176%)" offset="0.8125"/><stop stop-opacity="1" stop-color="rgb(93.591309%, 93.591309%, 93.591309%)" offset="0.820312"/><stop stop-opacity="1" stop-color="rgb(93.864441%, 93.864441%, 93.864441%)" offset="0.828125"/><stop stop-opacity="1" stop-color="rgb(94.136047%, 94.136047%, 94.136047%)" offset="0.835938"/><stop stop-opacity="1" stop-color="rgb(94.40918%, 94.40918%, 94.40918%)" offset="0.84375"/><stop stop-opacity="1" stop-color="rgb(94.682312%, 94.682312%, 94.682312%)" offset="0.851562"/><stop stop-opacity="1" stop-color="rgb(94.953918%, 94.953918%, 94.953918%)" offset="0.859375"/><stop stop-opacity="1" stop-color="rgb(95.227051%, 95.227051%, 95.227051%)" offset="0.867188"/><stop stop-opacity="1" stop-color="rgb(95.500183%, 95.500183%, 95.500183%)" offset="0.875"/><stop stop-opacity="1" stop-color="rgb(95.77179%, 95.77179%, 95.77179%)" offset="0.882812"/><stop stop-opacity="1" stop-color="rgb(96.044922%, 96.044922%, 96.044922%)" offset="0.890625"/><stop stop-opacity="1" stop-color="rgb(96.318054%, 96.318054%, 96.318054%)" offset="0.898438"/><stop stop-opacity="1" stop-color="rgb(96.591187%, 96.591187%, 96.591187%)" offset="0.90625"/><stop stop-opacity="1" stop-color="rgb(96.862793%, 96.862793%, 96.862793%)" offset="0.914062"/><stop stop-opacity="1" stop-color="rgb(97.135925%, 97.135925%, 97.135925%)" offset="0.921875"/><stop stop-opacity="1" stop-color="rgb(97.409058%, 97.409058%, 97.409058%)" offset="0.929688"/><stop stop-opacity="1" stop-color="rgb(97.680664%, 97.680664%, 97.680664%)" offset="0.9375"/><stop stop-opacity="1" stop-color="rgb(97.953796%, 97.953796%, 97.953796%)" offset="0.945312"/><stop stop-opacity="1" stop-color="rgb(98.226929%, 98.226929%, 98.226929%)" offset="0.953125"/><stop stop-opacity="1" stop-color="rgb(98.498535%, 98.498535%, 98.498535%)" offset="0.960938"/><stop stop-opacity="1" stop-color="rgb(98.771667%, 98.771667%, 98.771667%)" offset="0.96875"/><stop stop-opacity="1" stop-color="rgb(99.0448%, 99.0448%, 99.0448%)" offset="0.976562"/><stop stop-opacity="1" stop-color="rgb(99.316406%, 99.316406%, 99.316406%)" offset="0.984375"/><stop stop-opacity="1" stop-color="rgb(99.589539%, 99.589539%, 99.589539%)" offset="0.992188"/><stop stop-opacity="1" stop-color="rgb(99.862671%, 99.862671%, 99.862671%)" offset="1"/></linearGradient><clipPath id="bc144626d6"><path d="M 2.417969 1.40625 L 36.464844 1.40625 L 36.464844 35.453125 L 2.417969 35.453125 Z M 2.417969 1.40625 " clip-rule="nonzero"/></clipPath><clipPath id="b70704a575"><path d="M 19.511719 1.40625 C 10.070312 1.40625 2.417969 9.058594 2.417969 18.5 C 2.417969 27.9375 10.070312 35.589844 19.511719 35.589844 C 28.949219 35.589844 36.601562 27.9375 36.601562 18.5 C 36.601562 9.058594 28.949219 1.40625 19.511719 1.40625 Z M 19.511719 1.40625 " clip-rule="nonzero"/></clipPath><clipPath id="974b31e4f3"><path d="M 9.277344 8.265625 L 29.75 8.265625 L 29.75 28.738281 L 9.277344 28.738281 Z M 9.277344 8.265625 " clip-rule="nonzero"/></clipPath><clipPath id="4d863278ba"><path d="M 19.515625 8.265625 C 13.863281 8.265625 9.277344 12.851562 9.277344 18.503906 C 9.277344 24.15625 13.863281 28.738281 19.515625 28.738281 C 25.167969 28.738281 29.75 24.15625 29.75 18.503906 C 29.75 12.851562 25.167969 8.265625 19.515625 8.265625 Z M 19.515625 8.265625 " clip-rule="nonzero"/></clipPath><linearGradient x1="0.00000109907" gradientTransform="matrix(0.079969, 0, 0, 0.079969, 9.278768, 8.267254)" y1="128" x2="255.999986" gradientUnits="userSpaceOnUse" y2="128" id="3f4e04e067"><stop stop-opacity="1" stop-color="rgb(100%, 19.198608%, 19.198608%)" offset="0"/><stop stop-opacity="1" stop-color="rgb(100%, 19.345093%, 19.241333%)" offset="0.0078125"/><stop stop-opacity="1" stop-color="rgb(100%, 19.639587%, 19.328308%)" offset="0.015625"/><stop stop-opacity="1" stop-color="rgb(100%, 19.934082%, 19.413757%)" offset="0.0234375"/><stop stop-opacity="1" stop-color="rgb(100%, 20.230103%, 19.499207%)" offset="0.03125"/><stop stop-opacity="1" stop-color="rgb(100%, 20.524597%, 19.586182%)" offset="0.0390625"/><stop stop-opacity="1" stop-color="rgb(100%, 20.819092%, 19.671631%)" offset="0.046875"/><stop stop-opacity="1" stop-color="rgb(100%, 21.113586%, 19.75708%)" offset="0.0546875"/><stop stop-opacity="1" stop-color="rgb(100%, 21.408081%, 19.844055%)" offset="0.0625"/><stop stop-opacity="1" stop-color="rgb(100%, 21.702576%, 19.929504%)" offset="0.0703125"/><stop stop-opacity="1" stop-color="rgb(100%, 21.99707%, 20.014954%)" offset="0.078125"/><stop stop-opacity="1" stop-color="rgb(100%, 22.291565%, 20.101929%)" offset="0.0859375"/><stop stop-opacity="1" stop-color="rgb(100%, 22.58606%, 20.187378%)" offset="0.09375"/><stop stop-opacity="1" stop-color="rgb(100%, 22.880554%, 20.272827%)" offset="0.101562"/><stop stop-opacity="1" stop-color="rgb(100%, 23.175049%, 20.359802%)" offset="0.109375"/><stop stop-opacity="1" stop-color="rgb(100%, 23.469543%, 20.445251%)" offset="0.117187"/><stop stop-opacity="1" stop-color="rgb(100%, 23.764038%, 20.530701%)" offset="0.125"/><stop stop-opacity="1" stop-color="rgb(100%, 24.058533%, 20.617676%)" offset="0.132812"/><stop stop-opacity="1" stop-color="rgb(100%, 24.353027%, 20.703125%)" offset="0.140625"/><stop stop-opacity="1" stop-color="rgb(100%, 24.647522%, 20.788574%)" offset="0.148438"/><stop stop-opacity="1" stop-color="rgb(100%, 24.942017%, 20.874023%)" offset="0.15625"/><stop stop-opacity="1" stop-color="rgb(100%, 25.236511%, 20.960999%)" offset="0.164062"/><stop stop-opacity="1" stop-color="rgb(100%, 25.531006%, 21.046448%)" offset="0.171875"/><stop stop-opacity="1" stop-color="rgb(100%, 25.8255%, 21.131897%)" offset="0.179688"/><stop stop-opacity="1" stop-color="rgb(100%, 26.119995%, 21.218872%)" offset="0.1875"/><stop stop-opacity="1" stop-color="rgb(100%, 26.41449%, 21.304321%)" offset="0.195312"/><stop stop-opacity="1" stop-color="rgb(100%, 26.708984%, 21.389771%)" offset="0.203125"/><stop stop-opacity="1" stop-color="rgb(100%, 27.003479%, 21.476746%)" offset="0.210937"/><stop stop-opacity="1" stop-color="rgb(100%, 27.297974%, 21.562195%)" offset="0.21875"/><stop stop-opacity="1" stop-color="rgb(100%, 27.592468%, 21.647644%)" offset="0.226562"/><stop stop-opacity="1" stop-color="rgb(100%, 27.886963%, 21.734619%)" offset="0.234375"/><stop stop-opacity="1" stop-color="rgb(100%, 28.181458%, 21.820068%)" offset="0.242187"/><stop stop-opacity="1" stop-color="rgb(100%, 28.475952%, 21.905518%)" offset="0.25"/><stop stop-opacity="1" stop-color="rgb(100%, 28.770447%, 21.992493%)" offset="0.257812"/><stop stop-opacity="1" stop-color="rgb(100%, 29.064941%, 22.077942%)" offset="0.265625"/><stop stop-opacity="1" stop-color="rgb(100%, 29.359436%, 22.163391%)" offset="0.273437"/><stop stop-opacity="1" stop-color="rgb(100%, 29.653931%, 22.250366%)" offset="0.28125"/><stop stop-opacity="1" stop-color="rgb(100%, 29.948425%, 22.335815%)" offset="0.289062"/><stop stop-opacity="1" stop-color="rgb(100%, 30.24292%, 22.421265%)" offset="0.296875"/><stop stop-opacity="1" stop-color="rgb(100%, 30.537415%, 22.50824%)" offset="0.304688"/><stop stop-opacity="1" stop-color="rgb(100%, 30.831909%, 22.593689%)" offset="0.3125"/><stop stop-opacity="1" stop-color="rgb(100%, 31.126404%, 22.679138%)" offset="0.320312"/><stop stop-opacity="1" stop-color="rgb(100%, 31.420898%, 22.766113%)" offset="0.328125"/><stop stop-opacity="1" stop-color="rgb(100%, 31.715393%, 22.851562%)" offset="0.335938"/><stop stop-opacity="1" stop-color="rgb(100%, 32.009888%, 22.937012%)" offset="0.34375"/><stop stop-opacity="1" stop-color="rgb(100%, 32.304382%, 23.022461%)" offset="0.351562"/><stop stop-opacity="1" stop-color="rgb(100%, 32.600403%, 23.109436%)" offset="0.359375"/><stop stop-opacity="1" stop-color="rgb(100%, 32.894897%, 23.194885%)" offset="0.367187"/><stop stop-opacity="1" stop-color="rgb(100%, 33.189392%, 23.280334%)" offset="0.375"/><stop stop-opacity="1" stop-color="rgb(100%, 33.483887%, 23.36731%)" offset="0.382812"/><stop stop-opacity="1" stop-color="rgb(100%, 33.778381%, 23.452759%)" offset="0.390625"/><stop stop-opacity="1" stop-color="rgb(100%, 34.072876%, 23.538208%)" offset="0.398437"/><stop stop-opacity="1" stop-color="rgb(100%, 34.367371%, 23.625183%)" offset="0.40625"/><stop stop-opacity="1" stop-color="rgb(100%, 34.661865%, 23.710632%)" offset="0.414062"/><stop stop-opacity="1" stop-color="rgb(100%, 34.95636%, 23.796082%)" offset="0.421875"/><stop stop-opacity="1" stop-color="rgb(100%, 35.250854%, 23.883057%)" offset="0.429687"/><stop stop-opacity="1" stop-color="rgb(100%, 35.545349%, 23.968506%)" offset="0.4375"/><stop stop-opacity="1" stop-color="rgb(100%, 35.839844%, 24.053955%)" offset="0.445312"/><stop stop-opacity="1" stop-color="rgb(100%, 36.134338%, 24.14093%)" offset="0.453125"/><stop stop-opacity="1" stop-color="rgb(100%, 36.428833%, 24.226379%)" offset="0.460938"/><stop stop-opacity="1" stop-color="rgb(100%, 36.723328%, 24.311829%)" offset="0.46875"/><stop stop-opacity="1" stop-color="rgb(100%, 37.017822%, 24.398804%)" offset="0.476562"/><stop stop-opacity="1" stop-color="rgb(100%, 37.312317%, 24.484253%)" offset="0.484375"/><stop stop-opacity="1" stop-color="rgb(100%, 37.606812%, 24.569702%)" offset="0.492187"/><stop stop-opacity="1" stop-color="rgb(100%, 37.901306%, 24.656677%)" offset="0.5"/><stop stop-opacity="1" stop-color="rgb(100%, 38.195801%, 24.742126%)" offset="0.507812"/><stop stop-opacity="1" stop-color="rgb(100%, 38.490295%, 24.827576%)" offset="0.515625"/><stop stop-opacity="1" stop-color="rgb(100%, 38.78479%, 24.914551%)" offset="0.523438"/><stop stop-opacity="1" stop-color="rgb(100%, 39.079285%, 25%)" offset="0.53125"/><stop stop-opacity="1" stop-color="rgb(100%, 39.373779%, 25.085449%)" offset="0.539062"/><stop stop-opacity="1" stop-color="rgb(100%, 39.668274%, 25.170898%)" offset="0.546875"/><stop stop-opacity="1" stop-color="rgb(100%, 39.962769%, 25.257874%)" offset="0.554687"/><stop stop-opacity="1" stop-color="rgb(100%, 40.257263%, 25.343323%)" offset="0.5625"/><stop stop-opacity="1" stop-color="rgb(100%, 40.551758%, 25.428772%)" offset="0.570312"/><stop stop-opacity="1" stop-color="rgb(100%, 40.846252%, 25.515747%)" offset="0.578125"/><stop stop-opacity="1" stop-color="rgb(100%, 41.140747%, 25.601196%)" offset="0.585937"/><stop stop-opacity="1" stop-color="rgb(100%, 41.435242%, 25.686646%)" offset="0.59375"/><stop stop-opacity="1" stop-color="rgb(100%, 41.729736%, 25.773621%)" offset="0.601562"/><stop stop-opacity="1" stop-color="rgb(100%, 42.024231%, 25.85907%)" offset="0.609375"/><stop stop-opacity="1" stop-color="rgb(100%, 42.318726%, 25.944519%)" offset="0.617188"/><stop stop-opacity="1" stop-color="rgb(100%, 42.61322%, 26.031494%)" offset="0.625"/><stop stop-opacity="1" stop-color="rgb(100%, 42.907715%, 26.116943%)" offset="0.632812"/><stop stop-opacity="1" stop-color="rgb(100%, 43.202209%, 26.202393%)" offset="0.640625"/><stop stop-opacity="1" stop-color="rgb(100%, 43.496704%, 26.289368%)" offset="0.648438"/><stop stop-opacity="1" stop-color="rgb(100%, 43.791199%, 26.374817%)" offset="0.65625"/><stop stop-opacity="1" stop-color="rgb(100%, 44.085693%, 26.460266%)" offset="0.664062"/><stop stop-opacity="1" stop-color="rgb(100%, 44.380188%, 26.547241%)" offset="0.671875"/><stop stop-opacity="1" stop-color="rgb(100%, 44.674683%, 26.63269%)" offset="0.679687"/><stop stop-opacity="1" stop-color="rgb(100%, 44.970703%, 26.71814%)" offset="0.6875"/><stop stop-opacity="1" stop-color="rgb(100%, 45.265198%, 26.805115%)" offset="0.695312"/><stop stop-opacity="1" stop-color="rgb(100%, 45.559692%, 26.890564%)" offset="0.703125"/><stop stop-opacity="1" stop-color="rgb(100%, 45.854187%, 26.976013%)" offset="0.710938"/><stop stop-opacity="1" stop-color="rgb(100%, 46.148682%, 27.062988%)" offset="0.71875"/><stop stop-opacity="1" stop-color="rgb(100%, 46.443176%, 27.148438%)" offset="0.726562"/><stop stop-opacity="1" stop-color="rgb(100%, 46.737671%, 27.233887%)" offset="0.734375"/><stop stop-opacity="1" stop-color="rgb(100%, 47.032166%, 27.319336%)" offset="0.742188"/><stop stop-opacity="1" stop-color="rgb(100%, 47.32666%, 27.406311%)" offset="0.75"/><stop stop-opacity="1" stop-color="rgb(100%, 47.621155%, 27.49176%)" offset="0.757812"/><stop stop-opacity="1" stop-color="rgb(100%, 47.915649%, 27.577209%)" offset="0.765625"/><stop stop-opacity="1" stop-color="rgb(100%, 48.210144%, 27.664185%)" offset="0.773437"/><stop stop-opacity="1" stop-color="rgb(100%, 48.504639%, 27.749634%)" offset="0.78125"/><stop stop-opacity="1" stop-color="rgb(100%, 48.799133%, 27.835083%)" offset="0.789062"/><stop stop-opacity="1" stop-color="rgb(100%, 49.093628%, 27.922058%)" offset="0.796875"/><stop stop-opacity="1" stop-color="rgb(100%, 49.388123%, 28.007507%)" offset="0.804687"/><stop stop-opacity="1" stop-color="rgb(100%, 49.682617%, 28.092957%)" offset="0.8125"/><stop stop-opacity="1" stop-color="rgb(100%, 49.977112%, 28.179932%)" offset="0.820312"/><stop stop-opacity="1" stop-color="rgb(100%, 50.271606%, 28.265381%)" offset="0.828125"/><stop stop-opacity="1" stop-color="rgb(100%, 50.566101%, 28.35083%)" offset="0.835938"/><stop stop-opacity="1" stop-color="rgb(100%, 50.860596%, 28.437805%)" offset="0.84375"/><stop stop-opacity="1" stop-color="rgb(100%, 51.15509%, 28.523254%)" offset="0.851562"/><stop stop-opacity="1" stop-color="rgb(100%, 51.449585%, 28.608704%)" offset="0.859375"/><stop stop-opacity="1" stop-color="rgb(100%, 51.74408%, 28.695679%)" offset="0.867187"/><stop stop-opacity="1" stop-color="rgb(100%, 52.038574%, 28.781128%)" offset="0.875"/><stop stop-opacity="1" stop-color="rgb(100%, 52.333069%, 28.866577%)" offset="0.882812"/><stop stop-opacity="1" stop-color="rgb(100%, 52.627563%, 28.953552%)" offset="0.890625"/><stop stop-opacity="1" stop-color="rgb(100%, 52.922058%, 29.039001%)" offset="0.898437"/><stop stop-opacity="1" stop-color="rgb(100%, 53.216553%, 29.124451%)" offset="0.90625"/><stop stop-opacity="1" stop-color="rgb(100%, 53.511047%, 29.211426%)" offset="0.914062"/><stop stop-opacity="1" stop-color="rgb(100%, 53.805542%, 29.296875%)" offset="0.921875"/><stop stop-opacity="1" stop-color="rgb(100%, 54.100037%, 29.382324%)" offset="0.929688"/><stop stop-opacity="1" stop-color="rgb(100%, 54.394531%, 29.467773%)" offset="0.9375"/><stop stop-opacity="1" stop-color="rgb(100%, 54.689026%, 29.554749%)" offset="0.945312"/><stop stop-opacity="1" stop-color="rgb(100%, 54.983521%, 29.640198%)" offset="0.953125"/><stop stop-opacity="1" stop-color="rgb(100%, 55.278015%, 29.725647%)" offset="0.960937"/><stop stop-opacity="1" stop-color="rgb(100%, 55.57251%, 29.812622%)" offset="0.96875"/><stop stop-opacity="1" stop-color="rgb(100%, 55.867004%, 29.898071%)" offset="0.976562"/><stop stop-opacity="1" stop-color="rgb(100%, 56.161499%, 29.983521%)" offset="0.984375"/><stop stop-opacity="1" stop-color="rgb(100%, 56.455994%, 30.070496%)" offset="0.992187"/><stop stop-opacity="1" stop-color="rgb(100%, 56.750488%, 30.155945%)" offset="1"/></linearGradient><clipPath id="2db7a19650"><path d="M 9.277344 8.265625 L 29.746094 8.265625 L 29.746094 28.738281 L 9.277344 28.738281 Z M 9.277344 8.265625 " clip-rule="nonzero"/></clipPath><clipPath id="01f3cacdb4"><path d="M 19.511719 8.265625 C 13.859375 8.265625 9.277344 12.847656 9.277344 18.5 C 9.277344 24.15625 13.859375 28.738281 19.511719 28.738281 C 25.164062 28.738281 29.746094 24.15625 29.746094 18.5 C 29.746094 12.847656 25.164062 8.265625 19.511719 8.265625 Z M 19.511719 8.265625 " clip-rule="nonzero"/></clipPath><clipPath id="e404a230dd"><path d="M 12.496094 11.632812 L 21.378906 11.632812 L 21.378906 19.777344 L 12.496094 19.777344 Z M 12.496094 11.632812 " clip-rule="nonzero"/></clipPath><clipPath id="0ccea87b26"><path d="M 20 19 L 26.246094 19 L 26.246094 25.085938 L 20 25.085938 Z M 20 19 " clip-rule="nonzero"/></clipPath><clipPath id="f1eb954f52"><path d="M 18.101562 16.941406 L 25 16.941406 L 25 23 L 18.101562 23 Z M 18.101562 16.941406 " clip-rule="nonzero"/></clipPath><clipPath id="4075d1cabc"><path d="M 4.683594 17.609375 L 6.90625 17.609375 L 6.90625 19.089844 L 4.683594 19.089844 Z M 4.683594 17.609375 " clip-rule="nonzero"/></clipPath><clipPath id="cf9bfe1718"><path d="M 32 17.585938 L 34 17.585938 L 34 19.066406 L 32 19.066406 Z M 32 17.585938 " clip-rule="nonzero"/></clipPath><clipPath id="35defa6266"><path d="M 31.554688 17.585938 L 33 17.585938 L 33 19 L 31.554688 19 Z M 31.554688 17.585938 " clip-rule="nonzero"/></clipPath><clipPath id="26d31f9143"><path d="M 33 17.585938 L 34.511719 17.585938 L 34.511719 19 L 33 19 Z M 33 17.585938 " clip-rule="nonzero"/></clipPath></defs><g clip-path="url(#3f5b709332)"><g clip-path="url(#2daa104650)"><path fill="url(#7afacff814)" d="M 2.417969 1.40625 L 2.417969 35.601562 L 36.613281 35.601562 L 36.613281 1.40625 Z M 2.417969 1.40625 " fill-rule="nonzero"/></g></g><g clip-path="url(#bc144626d6)"><g clip-path="url(#b70704a575)"><path stroke-linecap="butt" transform="matrix(0.740132, 0, 0, 0.740132, 2.417763, 1.406251)" fill="none" stroke-linejoin="miter" d="M 23.095836 -0.00000125417 C 10.339446 -0.00000125417 0.000277886 10.339167 0.000277886 23.095557 C 0.000277886 35.846669 10.339446 46.185837 23.095836 46.185837 C 35.846948 46.185837 46.186116 35.846669 46.186116 23.095557 C 46.186116 10.339167 35.846948 -0.00000125417 23.095836 -0.00000125417 Z M 23.095836 -0.00000125417 " stroke="#000000" stroke-width="2" stroke-opacity="1" stroke-miterlimit="4"/></g></g><g clip-path="url(#974b31e4f3)"><g clip-path="url(#4d863278ba)"><path fill="url(#3f4e04e067)" d="M 9.277344 8.265625 L 9.277344 28.738281 L 29.75 28.738281 L 29.75 8.265625 Z M 9.277344 8.265625 " fill-rule="nonzero"/></g></g><g clip-path="url(#2db7a19650)"><g clip-path="url(#01f3cacdb4)"><path stroke-linecap="butt" transform="matrix(0.740132, 0, 0, 0.740132, 9.278768, 8.267255)" fill="none" stroke-linejoin="miter" d="M 13.825854 -0.00220229 C 6.188909 -0.00220229 -0.00192443 6.188631 -0.00192443 13.825576 C -0.00192443 21.467799 6.188909 27.658632 13.825854 27.658632 C 21.462799 27.658632 27.653632 21.467799 27.653632 13.825576 C 27.653632 6.188631 21.462799 -0.00220229 13.825854 -0.00220229 Z M 13.825854 -0.00220229 " stroke="#000000" stroke-width="2" stroke-opacity="1" stroke-miterlimit="4"/></g></g><g clip-path="url(#e404a230dd)"><path fill="#00d8ff" d="M 19.796875 14.335938 C 19.703125 14.304688 19.609375 14.277344 19.511719 14.25 C 19.527344 14.183594 19.542969 14.121094 19.554688 14.058594 C 19.773438 13.023438 19.628906 12.191406 19.148438 11.917969 C 18.683594 11.652344 17.925781 11.929688 17.160156 12.582031 C 17.085938 12.648438 17.011719 12.714844 16.941406 12.78125 C 16.894531 12.738281 16.84375 12.691406 16.792969 12.648438 C 15.992188 11.949219 15.1875 11.652344 14.707031 11.929688 C 14.242188 12.191406 14.105469 12.976562 14.300781 13.953125 C 14.320312 14.050781 14.34375 14.148438 14.367188 14.242188 C 14.253906 14.277344 14.144531 14.308594 14.039062 14.34375 C 13.097656 14.667969 12.496094 15.171875 12.496094 15.699219 C 12.496094 16.238281 13.140625 16.78125 14.121094 17.113281 C 14.199219 17.140625 14.28125 17.164062 14.363281 17.1875 C 14.335938 17.289062 14.3125 17.394531 14.292969 17.5 C 14.105469 18.460938 14.25 19.226562 14.710938 19.488281 C 15.1875 19.757812 15.988281 19.480469 16.769531 18.808594 C 16.832031 18.753906 16.894531 18.699219 16.953125 18.640625 C 17.03125 18.714844 17.109375 18.789062 17.191406 18.855469 C 17.949219 19.496094 18.691406 19.753906 19.152344 19.492188 C 19.628906 19.21875 19.785156 18.398438 19.582031 17.398438 C 19.566406 17.320312 19.550781 17.242188 19.53125 17.167969 C 19.585938 17.148438 19.640625 17.132812 19.695312 17.117188 C 20.714844 16.785156 21.375 16.246094 21.375 15.699219 C 21.375 15.171875 20.757812 14.664062 19.796875 14.335938 Z M 19.578125 16.761719 C 19.527344 16.777344 19.476562 16.792969 19.425781 16.808594 C 19.316406 16.457031 19.164062 16.085938 18.976562 15.699219 C 19.15625 15.324219 19.300781 14.957031 19.410156 14.609375 C 19.5 14.636719 19.589844 14.660156 19.675781 14.691406 C 20.496094 14.96875 20.996094 15.378906 20.996094 15.699219 C 20.996094 16.035156 20.457031 16.472656 19.578125 16.761719 Z M 19.210938 17.472656 C 19.300781 17.914062 19.3125 18.3125 19.253906 18.625 C 19.203125 18.90625 19.09375 19.09375 18.964844 19.167969 C 18.683594 19.328125 18.085938 19.121094 17.441406 18.574219 C 17.363281 18.507812 17.289062 18.441406 17.21875 18.375 C 17.46875 18.105469 17.71875 17.792969 17.960938 17.441406 C 18.390625 17.40625 18.796875 17.34375 19.164062 17.261719 C 19.179688 17.332031 19.199219 17.402344 19.210938 17.472656 Z M 15.523438 19.140625 C 15.25 19.234375 15.035156 19.238281 14.902344 19.164062 C 14.621094 19.003906 14.503906 18.390625 14.664062 17.566406 C 14.683594 17.46875 14.703125 17.375 14.730469 17.277344 C 15.09375 17.355469 15.496094 17.414062 15.925781 17.449219 C 16.171875 17.789062 16.429688 18.101562 16.6875 18.375 C 16.632812 18.425781 16.574219 18.476562 16.519531 18.527344 C 16.175781 18.824219 15.828125 19.035156 15.523438 19.140625 Z M 14.242188 16.757812 C 13.8125 16.613281 13.453125 16.425781 13.207031 16.21875 C 12.988281 16.03125 12.878906 15.847656 12.878906 15.699219 C 12.878906 15.378906 13.359375 14.972656 14.164062 14.699219 C 14.261719 14.664062 14.363281 14.632812 14.46875 14.601562 C 14.578125 14.960938 14.726562 15.332031 14.902344 15.707031 C 14.722656 16.089844 14.574219 16.464844 14.464844 16.828125 C 14.390625 16.804688 14.316406 16.785156 14.242188 16.757812 Z M 14.671875 13.882812 C 14.507812 13.042969 14.617188 12.410156 14.894531 12.25 C 15.191406 12.082031 15.851562 12.324219 16.542969 12.929688 C 16.585938 12.96875 16.632812 13.007812 16.675781 13.050781 C 16.417969 13.320312 16.164062 13.632812 15.917969 13.96875 C 15.5 14.007812 15.101562 14.070312 14.734375 14.152344 C 14.710938 14.0625 14.691406 13.972656 14.671875 13.882812 Z M 18.503906 14.8125 C 18.414062 14.664062 18.324219 14.519531 18.234375 14.375 C 18.515625 14.410156 18.789062 14.457031 19.042969 14.515625 C 18.964844 14.757812 18.871094 15.007812 18.757812 15.269531 C 18.675781 15.113281 18.589844 14.964844 18.503906 14.8125 Z M 16.941406 13.316406 C 17.117188 13.503906 17.292969 13.710938 17.464844 13.9375 C 17.113281 13.921875 16.765625 13.921875 16.414062 13.9375 C 16.585938 13.710938 16.761719 13.503906 16.941406 13.316406 Z M 15.371094 14.816406 C 15.28125 14.964844 15.199219 15.117188 15.117188 15.269531 C 15.007812 15.011719 14.914062 14.757812 14.835938 14.511719 C 15.089844 14.457031 15.359375 14.410156 15.640625 14.375 C 15.546875 14.519531 15.457031 14.667969 15.371094 14.816406 Z M 15.648438 17.046875 C 15.359375 17.015625 15.085938 16.972656 14.832031 16.917969 C 14.910156 16.667969 15.007812 16.410156 15.121094 16.144531 C 15.199219 16.296875 15.285156 16.449219 15.371094 16.597656 C 15.460938 16.75 15.554688 16.902344 15.648438 17.046875 Z M 16.953125 18.105469 C 16.773438 17.914062 16.59375 17.703125 16.417969 17.476562 C 16.585938 17.484375 16.761719 17.488281 16.9375 17.488281 C 17.117188 17.488281 17.296875 17.484375 17.472656 17.476562 C 17.300781 17.707031 17.125 17.917969 16.953125 18.105469 Z M 18.761719 16.132812 C 18.878906 16.398438 18.980469 16.65625 19.058594 16.902344 C 18.800781 16.960938 18.523438 17.003906 18.230469 17.039062 C 18.324219 16.894531 18.417969 16.746094 18.503906 16.59375 C 18.59375 16.441406 18.679688 16.289062 18.761719 16.132812 Z M 18.175781 16.410156 C 18.042969 16.640625 17.898438 16.863281 17.75 17.085938 C 17.480469 17.105469 17.207031 17.113281 16.9375 17.113281 C 16.660156 17.113281 16.390625 17.105469 16.132812 17.089844 C 15.980469 16.867188 15.835938 16.640625 15.699219 16.410156 C 15.5625 16.179688 15.4375 15.945312 15.320312 15.707031 C 15.4375 15.46875 15.5625 15.234375 15.699219 15.003906 C 15.832031 14.773438 15.976562 14.546875 16.128906 14.328125 C 16.390625 14.308594 16.664062 14.296875 16.9375 14.296875 C 17.210938 14.296875 17.484375 14.308594 17.746094 14.328125 C 17.898438 14.546875 18.039062 14.769531 18.175781 15 C 18.308594 15.230469 18.4375 15.464844 18.558594 15.703125 C 18.4375 15.941406 18.3125 16.179688 18.175781 16.410156 Z M 18.957031 12.238281 C 19.253906 12.410156 19.371094 13.089844 19.183594 13.980469 C 19.171875 14.039062 19.160156 14.097656 19.144531 14.15625 C 18.777344 14.070312 18.375 14.007812 17.957031 13.972656 C 17.714844 13.628906 17.460938 13.316406 17.207031 13.050781 C 17.273438 12.984375 17.339844 12.925781 17.410156 12.863281 C 18.066406 12.304688 18.679688 12.082031 18.957031 12.238281 Z M 16.9375 14.917969 C 17.375 14.917969 17.730469 15.265625 17.730469 15.699219 C 17.730469 16.128906 17.375 16.476562 16.9375 16.476562 C 16.5 16.476562 16.144531 16.128906 16.144531 15.699219 C 16.144531 15.265625 16.5 14.917969 16.9375 14.917969 Z M 16.9375 14.917969 " fill-opacity="1" fill-rule="nonzero"/></g><g clip-path="url(#0ccea87b26)"><path fill="#f2bb30" d="M 25.070312 22.921875 C 25.628906 22.921875 25.835938 22.535156 26.03125 21.949219 C 26.230469 21.347656 26.222656 20.769531 26.03125 20 C 25.890625 19.445312 25.628906 19.027344 25.070312 19.027344 L 24.351562 19.027344 L 24.351562 19.878906 C 24.351562 20.539062 23.792969 21.097656 23.152344 21.097656 L 21.234375 21.097656 C 20.710938 21.097656 20.277344 21.542969 20.277344 22.070312 L 20.277344 23.898438 C 20.277344 24.417969 20.730469 24.722656 21.234375 24.871094 C 21.84375 25.050781 22.425781 25.082031 23.152344 24.871094 C 23.636719 24.730469 24.113281 24.449219 24.113281 23.898438 L 24.113281 23.167969 L 22.195312 23.167969 L 22.195312 22.921875 Z M 23.273438 23.652344 C 23.472656 23.652344 23.632812 23.816406 23.632812 24.019531 C 23.632812 24.222656 23.472656 24.382812 23.273438 24.382812 C 23.074219 24.382812 22.914062 24.21875 22.914062 24.019531 C 22.914062 23.816406 23.074219 23.652344 23.273438 23.652344 Z M 23.273438 23.652344 " fill-opacity="1" fill-rule="nonzero"/></g><g clip-path="url(#f1eb954f52)"><path fill="#35668f" d="M 19.289062 22.921875 L 19.949219 22.921875 L 19.949219 22.046875 C 19.949219 21.414062 20.496094 20.855469 21.148438 20.855469 L 23.0625 20.855469 C 23.597656 20.855469 24.023438 20.414062 24.023438 19.878906 L 24.023438 18.050781 C 24.023438 17.53125 23.585938 17.140625 23.0625 17.054688 C 22.421875 16.949219 21.722656 16.953125 21.148438 17.054688 C 20.335938 17.199219 20.191406 17.5 20.191406 18.054688 L 20.191406 18.785156 L 22.109375 18.785156 L 22.109375 19.027344 L 19.46875 19.027344 C 18.910156 19.027344 18.421875 19.363281 18.269531 20 C 18.09375 20.730469 18.089844 21.1875 18.269531 21.949219 C 18.40625 22.515625 18.730469 22.921875 19.289062 22.921875 Z M 21.027344 18.296875 C 20.828125 18.296875 20.667969 18.132812 20.667969 17.929688 C 20.667969 17.726562 20.828125 17.566406 21.027344 17.566406 C 21.226562 17.566406 21.386719 17.730469 21.386719 17.929688 C 21.386719 18.132812 21.226562 18.296875 21.027344 18.296875 Z M 21.027344 18.296875 " fill-opacity="1" fill-rule="nonzero"/></g><g clip-path="url(#4075d1cabc)"><path fill="#000000" d="M 5.109375 18.441406 C 5.085938 18.476562 5.054688 18.5 5.007812 18.511719 C 5.054688 18.527344 5.085938 18.550781 5.109375 18.582031 C 5.128906 18.613281 5.136719 18.664062 5.136719 18.726562 L 5.136719 19.035156 C 5.136719 19.082031 5.148438 19.117188 5.175781 19.144531 C 5.199219 19.167969 5.234375 19.179688 5.277344 19.179688 L 5.3125 19.179688 L 5.3125 19.414062 L 5.203125 19.414062 C 5.082031 19.414062 4.992188 19.386719 4.929688 19.324219 C 4.867188 19.265625 4.835938 19.179688 4.835938 19.070312 L 4.835938 18.722656 C 4.835938 18.691406 4.832031 18.667969 4.816406 18.652344 C 4.800781 18.636719 4.78125 18.628906 4.753906 18.628906 L 4.6875 18.628906 L 4.6875 18.394531 L 4.753906 18.394531 C 4.78125 18.394531 4.800781 18.386719 4.816406 18.371094 C 4.832031 18.355469 4.835938 18.335938 4.835938 18.304688 L 4.835938 17.957031 C 4.835938 17.84375 4.867188 17.757812 4.929688 17.699219 C 4.992188 17.640625 5.082031 17.609375 5.203125 17.609375 L 5.3125 17.609375 L 5.3125 17.847656 L 5.277344 17.847656 C 5.234375 17.847656 5.199219 17.859375 5.175781 17.882812 C 5.148438 17.90625 5.136719 17.941406 5.136719 17.988281 L 5.136719 18.296875 C 5.136719 18.363281 5.128906 18.410156 5.109375 18.441406 Z M 6.371094 18.628906 L 6.035156 18.628906 L 6.035156 18.957031 L 5.789062 18.957031 L 5.789062 18.628906 L 5.453125 18.628906 L 5.453125 18.394531 L 5.789062 18.394531 L 5.789062 18.066406 L 6.035156 18.066406 L 6.035156 18.394531 L 6.371094 18.394531 Z M 7.144531 18.394531 L 7.144531 18.628906 L 7.078125 18.628906 C 7.050781 18.628906 7.03125 18.636719 7.015625 18.652344 C 7 18.667969 6.996094 18.691406 6.996094 18.71875 L 6.996094 19.070312 C 6.996094 19.179688 6.964844 19.265625 6.902344 19.324219 C 6.839844 19.386719 6.75 19.414062 6.628906 19.414062 L 6.519531 19.414062 L 6.519531 19.179688 L 6.554688 19.179688 C 6.597656 19.179688 6.632812 19.167969 6.65625 19.144531 C 6.683594 19.117188 6.695312 19.082031 6.695312 19.035156 L 6.695312 18.726562 C 6.695312 18.664062 6.703125 18.613281 6.726562 18.582031 C 6.746094 18.550781 6.777344 18.527344 6.824219 18.511719 C 6.777344 18.5 6.746094 18.476562 6.726562 18.441406 C 6.703125 18.410156 6.695312 18.363281 6.695312 18.296875 L 6.695312 17.988281 C 6.695312 17.941406 6.683594 17.90625 6.65625 17.882812 C 6.632812 17.859375 6.597656 17.84375 6.554688 17.84375 L 6.519531 17.84375 L 6.519531 17.609375 L 6.628906 17.609375 C 6.75 17.609375 6.839844 17.640625 6.902344 17.699219 C 6.964844 17.757812 6.996094 17.84375 6.996094 17.957031 L 6.996094 18.304688 C 6.996094 18.335938 7 18.355469 7.015625 18.371094 C 7.03125 18.386719 7.050781 18.394531 7.078125 18.394531 Z M 7.144531 18.394531 " fill-opacity="1" fill-rule="nonzero"/></g><g clip-path="url(#cf9bfe1718)"><path fill="#000000" d="M 33.34375 17.589844 C 33.332031 17.585938 33.316406 17.585938 33.300781 17.585938 C 33.242188 17.585938 33.191406 17.613281 33.175781 17.65625 L 32.636719 18.925781 C 32.632812 18.9375 32.628906 18.949219 32.628906 18.960938 C 32.628906 19.019531 32.691406 19.066406 32.765625 19.066406 C 32.824219 19.066406 32.875 19.035156 32.890625 18.992188 L 33.429688 17.722656 C 33.433594 17.714844 33.4375 17.703125 33.4375 17.691406 C 33.4375 17.644531 33.398438 17.605469 33.34375 17.589844 " fill-opacity="1" fill-rule="nonzero"/></g><g clip-path="url(#35defa6266)"><path fill="#000000" d="M 32.324219 17.828125 C 32.296875 17.808594 32.261719 17.796875 32.226562 17.796875 C 32.191406 17.796875 32.15625 17.808594 32.132812 17.828125 L 31.597656 18.25 C 31.570312 18.269531 31.554688 18.296875 31.554688 18.324219 C 31.554688 18.351562 31.570312 18.378906 31.597656 18.398438 L 32.132812 18.824219 C 32.15625 18.839844 32.191406 18.851562 32.226562 18.851562 C 32.300781 18.851562 32.359375 18.804688 32.359375 18.746094 C 32.359375 18.71875 32.347656 18.691406 32.324219 18.671875 L 31.878906 18.324219 L 32.324219 17.976562 C 32.347656 17.957031 32.363281 17.929688 32.363281 17.902344 C 32.363281 17.875 32.347656 17.847656 32.324219 17.828125 " fill-opacity="1" fill-rule="nonzero"/></g><g clip-path="url(#26d31f9143)"><path fill="#000000" d="M 34.472656 18.25 L 33.933594 17.828125 C 33.910156 17.808594 33.875 17.796875 33.839844 17.796875 C 33.765625 17.796875 33.707031 17.84375 33.707031 17.902344 C 33.707031 17.929688 33.71875 17.957031 33.742188 17.976562 L 34.1875 18.324219 L 33.742188 18.671875 C 33.71875 18.691406 33.703125 18.71875 33.703125 18.75 C 33.703125 18.808594 33.761719 18.855469 33.835938 18.855469 C 33.875 18.855469 33.910156 18.84375 33.933594 18.824219 L 34.472656 18.398438 C 34.496094 18.378906 34.511719 18.351562 34.511719 18.324219 C 34.511719 18.296875 34.496094 18.269531 34.472656 18.25 " fill-opacity="1" fill-rule="nonzero"/></g><g fill="#000000" fill-opacity="1"><g transform="translate(8.939219, 12.057879)"><g><path d="M -1.234375 -3.0625 C -1.097656 -3.238281 -0.96875 -3.367188 -0.84375 -3.453125 C -0.71875 -3.535156 -0.582031 -3.597656 -0.4375 -3.640625 C -0.40625 -3.660156 -0.363281 -3.664062 -0.3125 -3.65625 C -0.257812 -3.65625 -0.207031 -3.632812 -0.15625 -3.59375 C -0.09375 -3.539062 -0.0546875 -3.472656 -0.046875 -3.390625 C -0.0351562 -3.304688 -0.0546875 -3.234375 -0.109375 -3.171875 C -0.140625 -3.128906 -0.171875 -3.101562 -0.203125 -3.09375 C -0.234375 -3.082031 -0.257812 -3.070312 -0.28125 -3.0625 C -0.375 -3.039062 -0.460938 -3 -0.546875 -2.9375 C -0.628906 -2.875 -0.710938 -2.789062 -0.796875 -2.6875 C -0.859375 -2.59375 -0.898438 -2.492188 -0.921875 -2.390625 C -0.941406 -2.296875 -0.941406 -2.191406 -0.921875 -2.078125 C -0.910156 -1.972656 -0.875 -1.875 -0.8125 -1.78125 C -0.757812 -1.6875 -0.6875 -1.609375 -0.59375 -1.546875 L -0.59375 -1.53125 C -0.488281 -1.457031 -0.378906 -1.398438 -0.265625 -1.359375 C -0.148438 -1.316406 -0.0390625 -1.300781 0.0625 -1.3125 C 0.164062 -1.332031 0.265625 -1.367188 0.359375 -1.421875 C 0.460938 -1.484375 0.550781 -1.566406 0.625 -1.671875 C 0.769531 -1.847656 0.847656 -2.03125 0.859375 -2.21875 L 0.53125 -2.46875 L 0.265625 -2.125 C 0.222656 -2.070312 0.164062 -2.039062 0.09375 -2.03125 C 0.0195312 -2.019531 -0.0390625 -2.035156 -0.09375 -2.078125 C -0.15625 -2.128906 -0.191406 -2.191406 -0.203125 -2.265625 C -0.210938 -2.335938 -0.195312 -2.398438 -0.15625 -2.453125 L 0.28125 -3.015625 C 0.332031 -3.085938 0.398438 -3.125 0.484375 -3.125 C 0.578125 -3.132812 0.65625 -3.113281 0.71875 -3.0625 L 1.25 -2.65625 C 1.394531 -2.550781 1.453125 -2.414062 1.421875 -2.25 C 1.421875 -2.113281 1.390625 -1.960938 1.328125 -1.796875 C 1.273438 -1.640625 1.179688 -1.472656 1.046875 -1.296875 C 0.910156 -1.117188 0.757812 -0.984375 0.59375 -0.890625 C 0.4375 -0.796875 0.265625 -0.734375 0.078125 -0.703125 C -0.0976562 -0.671875 -0.273438 -0.679688 -0.453125 -0.734375 C -0.628906 -0.796875 -0.800781 -0.890625 -0.96875 -1.015625 C -1.125 -1.140625 -1.25 -1.28125 -1.34375 -1.4375 C -1.445312 -1.601562 -1.507812 -1.78125 -1.53125 -1.96875 C -1.5625 -2.15625 -1.550781 -2.34375 -1.5 -2.53125 C -1.445312 -2.71875 -1.359375 -2.894531 -1.234375 -3.0625 Z M -1.234375 -3.0625 "/></g></g></g><g fill="#000000" fill-opacity="1"><g transform="translate(11.663168, 8.853857)"><g><path d="M 0.09375 -0.453125 L -1.109375 -2.25 C -1.160156 -2.320312 -1.175781 -2.398438 -1.15625 -2.484375 C -1.144531 -2.566406 -1.101562 -2.632812 -1.03125 -2.6875 L 0.25 -3.546875 C 0.3125 -3.585938 0.382812 -3.597656 0.46875 -3.578125 C 0.550781 -3.566406 0.609375 -3.53125 0.640625 -3.46875 C 0.679688 -3.40625 0.691406 -3.335938 0.671875 -3.265625 C 0.660156 -3.191406 0.625 -3.132812 0.5625 -3.09375 L -0.46875 -2.390625 L -0.15625 -1.90625 L 0.734375 -2.515625 C 0.796875 -2.554688 0.863281 -2.566406 0.9375 -2.546875 C 1.007812 -2.535156 1.066406 -2.5 1.109375 -2.4375 C 1.148438 -2.363281 1.164062 -2.289062 1.15625 -2.21875 C 1.144531 -2.15625 1.109375 -2.101562 1.046875 -2.0625 L 0.15625 -1.453125 L 0.484375 -0.96875 L 1.53125 -1.671875 C 1.601562 -1.722656 1.671875 -1.738281 1.734375 -1.71875 C 1.804688 -1.707031 1.867188 -1.664062 1.921875 -1.59375 C 1.953125 -1.53125 1.960938 -1.460938 1.953125 -1.390625 C 1.941406 -1.328125 1.898438 -1.269531 1.828125 -1.21875 L 0.53125 -0.359375 C 0.457031 -0.304688 0.378906 -0.285156 0.296875 -0.296875 C 0.210938 -0.316406 0.144531 -0.367188 0.09375 -0.453125 Z M 0.09375 -0.453125 "/></g></g></g><g fill="#000000" fill-opacity="1"><g transform="translate(14.862265, 6.87984)"><g><path d="M 0.234375 -0.34375 L -0.328125 -2.5 C -0.359375 -2.570312 -0.347656 -2.648438 -0.296875 -2.734375 C -0.253906 -2.816406 -0.191406 -2.867188 -0.109375 -2.890625 L -0.0625 -2.90625 C 0.0078125 -2.914062 0.0703125 -2.910156 0.125 -2.890625 C 0.1875 -2.867188 0.25 -2.835938 0.3125 -2.796875 L 1.84375 -1.625 L 1.46875 -3.015625 C 1.445312 -3.085938 1.457031 -3.15625 1.5 -3.21875 C 1.539062 -3.289062 1.609375 -3.34375 1.703125 -3.375 C 1.773438 -3.394531 1.847656 -3.382812 1.921875 -3.34375 C 1.992188 -3.300781 2.039062 -3.242188 2.0625 -3.171875 L 2.640625 -1.015625 C 2.660156 -0.929688 2.648438 -0.851562 2.609375 -0.78125 C 2.566406 -0.707031 2.503906 -0.65625 2.421875 -0.625 L 2.40625 -0.625 C 2.332031 -0.601562 2.269531 -0.601562 2.21875 -0.625 C 2.164062 -0.644531 2.109375 -0.675781 2.046875 -0.71875 L 0.453125 -1.953125 L 0.828125 -0.515625 C 0.847656 -0.441406 0.835938 -0.363281 0.796875 -0.28125 C 0.765625 -0.207031 0.710938 -0.160156 0.640625 -0.140625 C 0.554688 -0.117188 0.472656 -0.128906 0.390625 -0.171875 C 0.304688 -0.210938 0.253906 -0.269531 0.234375 -0.34375 Z M 0.234375 -0.34375 "/></g></g></g><g fill="#000000" fill-opacity="1"><g transform="translate(18.996666, 5.99558)"><g><path d="M 0.34375 -0.296875 L 0.484375 -2.46875 C 0.492188 -2.550781 0.53125 -2.617188 0.59375 -2.671875 C 0.664062 -2.734375 0.742188 -2.757812 0.828125 -2.75 L 2.375 -2.65625 C 2.445312 -2.644531 2.507812 -2.609375 2.5625 -2.546875 C 2.613281 -2.492188 2.640625 -2.429688 2.640625 -2.359375 C 2.628906 -2.285156 2.59375 -2.222656 2.53125 -2.171875 C 2.46875 -2.117188 2.398438 -2.097656 2.328125 -2.109375 L 1.078125 -2.1875 L 1.046875 -1.609375 L 2.125 -1.53125 C 2.195312 -1.53125 2.253906 -1.5 2.296875 -1.4375 C 2.347656 -1.382812 2.375 -1.320312 2.375 -1.25 C 2.363281 -1.164062 2.332031 -1.097656 2.28125 -1.046875 C 2.226562 -1.003906 2.164062 -0.984375 2.09375 -0.984375 L 1.015625 -1.0625 L 0.96875 -0.484375 L 2.234375 -0.40625 C 2.316406 -0.394531 2.382812 -0.363281 2.4375 -0.3125 C 2.488281 -0.257812 2.507812 -0.191406 2.5 -0.109375 C 2.5 -0.0351562 2.46875 0.0234375 2.40625 0.078125 C 2.351562 0.128906 2.285156 0.148438 2.203125 0.140625 L 0.640625 0.046875 C 0.554688 0.0351562 0.484375 0 0.421875 -0.0625 C 0.367188 -0.125 0.34375 -0.203125 0.34375 -0.296875 Z M 0.34375 -0.296875 "/></g></g></g><g fill="#000000" fill-opacity="1"><g transform="translate(22.742615, 6.4017)"><g><path d="M 1.234375 -2.171875 C 1.265625 -2.253906 1.320312 -2.3125 1.40625 -2.34375 C 1.488281 -2.382812 1.566406 -2.390625 1.640625 -2.359375 L 2.53125 -1.984375 C 2.664062 -1.929688 2.785156 -1.863281 2.890625 -1.78125 C 3.003906 -1.695312 3.085938 -1.601562 3.140625 -1.5 C 3.203125 -1.394531 3.238281 -1.273438 3.25 -1.140625 C 3.257812 -1.015625 3.234375 -0.878906 3.171875 -0.734375 L 3.171875 -0.71875 C 3.085938 -0.519531 2.972656 -0.375 2.828125 -0.28125 C 2.679688 -0.1875 2.515625 -0.140625 2.328125 -0.140625 L 2.53125 0.484375 C 2.539062 0.535156 2.546875 0.582031 2.546875 0.625 C 2.554688 0.664062 2.550781 0.703125 2.53125 0.734375 C 2.5 0.828125 2.445312 0.882812 2.375 0.90625 C 2.300781 0.9375 2.226562 0.9375 2.15625 0.90625 C 2.09375 0.882812 2.039062 0.847656 2 0.796875 C 1.96875 0.742188 1.945312 0.691406 1.9375 0.640625 L 1.65625 -0.296875 L 1.21875 -0.46875 L 1 0.09375 C 0.96875 0.175781 0.90625 0.234375 0.8125 0.265625 C 0.726562 0.296875 0.648438 0.296875 0.578125 0.265625 C 0.503906 0.234375 0.445312 0.175781 0.40625 0.09375 C 0.375 0.0195312 0.375 -0.0546875 0.40625 -0.140625 Z M 1.734375 -1.71875 L 1.421875 -0.96875 L 1.984375 -0.75 C 2.128906 -0.6875 2.253906 -0.671875 2.359375 -0.703125 C 2.460938 -0.742188 2.535156 -0.816406 2.578125 -0.921875 L 2.578125 -0.9375 C 2.628906 -1.0625 2.628906 -1.171875 2.578125 -1.265625 C 2.523438 -1.359375 2.429688 -1.4375 2.296875 -1.5 Z M 1.734375 -1.71875 "/></g></g></g><g fill="#000000" fill-opacity="1"><g transform="translate(26.373773, 8.147442)"><g><path d="M 1.796875 -1.765625 C 1.859375 -1.835938 1.929688 -1.878906 2.015625 -1.890625 C 2.097656 -1.898438 2.171875 -1.878906 2.234375 -1.828125 C 2.304688 -1.773438 2.347656 -1.707031 2.359375 -1.625 C 2.367188 -1.539062 2.34375 -1.460938 2.28125 -1.390625 L 0.9375 0.375 C 0.882812 0.4375 0.816406 0.472656 0.734375 0.484375 C 0.660156 0.503906 0.585938 0.488281 0.515625 0.4375 C 0.453125 0.382812 0.410156 0.3125 0.390625 0.21875 C 0.378906 0.132812 0.398438 0.0625 0.453125 0 Z M 1.796875 -1.765625 "/></g></g></g><g fill="#000000" fill-opacity="1"><g transform="translate(28.331946, 9.707193)"><g><path d="M 3.265625 -0.390625 C 3.398438 -0.222656 3.488281 -0.0664062 3.53125 0.078125 C 3.570312 0.234375 3.59375 0.382812 3.59375 0.53125 C 3.59375 0.570312 3.582031 0.613281 3.5625 0.65625 C 3.550781 0.707031 3.523438 0.75 3.484375 0.78125 C 3.421875 0.832031 3.347656 0.847656 3.265625 0.828125 C 3.179688 0.816406 3.113281 0.78125 3.0625 0.71875 C 3.03125 0.675781 3.007812 0.640625 3 0.609375 C 3 0.585938 3 0.5625 3 0.53125 C 3 0.425781 2.984375 0.328125 2.953125 0.234375 C 2.929688 0.140625 2.882812 0.0507812 2.8125 -0.03125 C 2.738281 -0.125 2.65625 -0.195312 2.5625 -0.25 C 2.46875 -0.3125 2.363281 -0.347656 2.25 -0.359375 C 2.144531 -0.367188 2.039062 -0.351562 1.9375 -0.3125 C 1.832031 -0.28125 1.734375 -0.226562 1.640625 -0.15625 L 1.625 -0.15625 C 1.53125 -0.0820312 1.445312 0 1.375 0.09375 C 1.3125 0.1875 1.273438 0.285156 1.265625 0.390625 C 1.253906 0.503906 1.253906 0.613281 1.265625 0.71875 C 1.285156 0.820312 1.332031 0.921875 1.40625 1.015625 C 1.488281 1.117188 1.570312 1.195312 1.65625 1.25 C 1.75 1.300781 1.847656 1.34375 1.953125 1.375 C 2.015625 1.382812 2.070312 1.414062 2.125 1.46875 C 2.164062 1.53125 2.179688 1.597656 2.171875 1.671875 C 2.160156 1.753906 2.117188 1.820312 2.046875 1.875 C 2.015625 1.90625 1.976562 1.921875 1.9375 1.921875 C 1.90625 1.921875 1.867188 1.925781 1.828125 1.9375 C 1.660156 1.894531 1.507812 1.828125 1.375 1.734375 C 1.238281 1.648438 1.097656 1.519531 0.953125 1.34375 C 0.828125 1.175781 0.738281 1 0.6875 0.8125 C 0.644531 0.625 0.632812 0.441406 0.65625 0.265625 C 0.6875 0.0859375 0.75 -0.078125 0.84375 -0.234375 C 0.945312 -0.398438 1.078125 -0.546875 1.234375 -0.671875 C 1.390625 -0.785156 1.554688 -0.867188 1.734375 -0.921875 C 1.921875 -0.972656 2.101562 -0.988281 2.28125 -0.96875 C 2.46875 -0.945312 2.644531 -0.882812 2.8125 -0.78125 C 2.988281 -0.6875 3.140625 -0.554688 3.265625 -0.390625 Z M 3.265625 -0.390625 "/></g></g></g><g fill="#000000" fill-opacity="1"><g transform="translate(10.307719, 30.614488)"><g><path d="M 0.8125 -0.4375 C 0.851562 -0.414062 0.878906 -0.390625 0.890625 -0.359375 C 0.898438 -0.335938 0.914062 -0.320312 0.9375 -0.3125 C 0.976562 -0.1875 1.035156 -0.0703125 1.109375 0.03125 C 1.191406 0.132812 1.289062 0.222656 1.40625 0.296875 C 1.507812 0.359375 1.601562 0.382812 1.6875 0.375 C 1.769531 0.375 1.832031 0.34375 1.875 0.28125 C 1.894531 0.238281 1.910156 0.203125 1.921875 0.171875 C 1.929688 0.140625 1.925781 0.0976562 1.90625 0.046875 C 1.882812 0.00390625 1.847656 -0.0390625 1.796875 -0.09375 C 1.742188 -0.144531 1.675781 -0.222656 1.59375 -0.328125 C 1.488281 -0.421875 1.398438 -0.515625 1.328125 -0.609375 C 1.253906 -0.710938 1.203125 -0.8125 1.171875 -0.90625 C 1.140625 -1.007812 1.128906 -1.109375 1.140625 -1.203125 C 1.148438 -1.296875 1.195312 -1.40625 1.28125 -1.53125 C 1.34375 -1.632812 1.421875 -1.71875 1.515625 -1.78125 C 1.617188 -1.84375 1.722656 -1.882812 1.828125 -1.90625 C 1.941406 -1.925781 2.0625 -1.921875 2.1875 -1.890625 C 2.3125 -1.859375 2.4375 -1.804688 2.5625 -1.734375 C 2.84375 -1.554688 3.039062 -1.328125 3.15625 -1.046875 C 3.175781 -1.015625 3.1875 -0.972656 3.1875 -0.921875 C 3.195312 -0.878906 3.1875 -0.832031 3.15625 -0.78125 C 3.113281 -0.707031 3.050781 -0.664062 2.96875 -0.65625 C 2.894531 -0.644531 2.828125 -0.660156 2.765625 -0.703125 C 2.710938 -0.734375 2.675781 -0.765625 2.65625 -0.796875 C 2.539062 -1.015625 2.40625 -1.171875 2.25 -1.265625 C 2.15625 -1.328125 2.066406 -1.359375 1.984375 -1.359375 C 1.898438 -1.359375 1.84375 -1.332031 1.8125 -1.28125 L 1.8125 -1.265625 C 1.78125 -1.222656 1.765625 -1.179688 1.765625 -1.140625 C 1.773438 -1.097656 1.789062 -1.054688 1.8125 -1.015625 C 1.84375 -0.972656 1.878906 -0.921875 1.921875 -0.859375 C 1.972656 -0.796875 2.039062 -0.71875 2.125 -0.625 C 2.21875 -0.519531 2.300781 -0.414062 2.375 -0.3125 C 2.445312 -0.207031 2.5 -0.109375 2.53125 -0.015625 C 2.5625 0.078125 2.566406 0.164062 2.546875 0.25 C 2.535156 0.34375 2.492188 0.441406 2.421875 0.546875 C 2.347656 0.660156 2.257812 0.75 2.15625 0.8125 C 2.0625 0.882812 1.957031 0.925781 1.84375 0.9375 C 1.726562 0.957031 1.601562 0.953125 1.46875 0.921875 C 1.34375 0.890625 1.21875 0.832031 1.09375 0.75 C 0.9375 0.65625 0.796875 0.535156 0.671875 0.390625 C 0.554688 0.242188 0.460938 0.0820312 0.390625 -0.09375 C 0.378906 -0.132812 0.375 -0.175781 0.375 -0.21875 C 0.375 -0.269531 0.382812 -0.320312 0.40625 -0.375 C 0.445312 -0.4375 0.507812 -0.472656 0.59375 -0.484375 C 0.675781 -0.503906 0.75 -0.488281 0.8125 -0.4375 Z M 0.8125 -0.4375 "/></g></g></g><g fill="#000000" fill-opacity="1"><g transform="translate(14.245704, 32.793427)"><g><path d="M 1.28125 -2.5625 C 1.363281 -2.539062 1.425781 -2.492188 1.46875 -2.421875 C 1.519531 -2.359375 1.53125 -2.28125 1.5 -2.1875 L 1.1875 -0.9375 C 1.125 -0.707031 1.125 -0.523438 1.1875 -0.390625 C 1.257812 -0.253906 1.390625 -0.164062 1.578125 -0.125 C 1.765625 -0.0703125 1.925781 -0.0859375 2.0625 -0.171875 C 2.195312 -0.253906 2.289062 -0.40625 2.34375 -0.625 L 2.671875 -1.890625 C 2.703125 -1.984375 2.75 -2.046875 2.8125 -2.078125 C 2.875 -2.117188 2.953125 -2.128906 3.046875 -2.109375 C 3.128906 -2.085938 3.191406 -2.039062 3.234375 -1.96875 C 3.273438 -1.90625 3.28125 -1.828125 3.25 -1.734375 L 2.9375 -0.484375 C 2.882812 -0.285156 2.8125 -0.117188 2.71875 0.015625 C 2.625 0.160156 2.507812 0.269531 2.375 0.34375 C 2.25 0.414062 2.101562 0.457031 1.9375 0.46875 C 1.78125 0.488281 1.613281 0.472656 1.4375 0.421875 C 1.070312 0.328125 0.8125 0.15625 0.65625 -0.09375 C 0.5 -0.351562 0.472656 -0.6875 0.578125 -1.09375 L 0.90625 -2.34375 C 0.9375 -2.4375 0.984375 -2.5 1.046875 -2.53125 C 1.117188 -2.570312 1.195312 -2.582031 1.28125 -2.5625 Z M 1.28125 -2.5625 "/></g></g></g><g fill="#000000" fill-opacity="1"><g transform="translate(19.054144, 33.67343)"><g><path d="M 0.328125 -2.5 C 0.328125 -2.59375 0.359375 -2.664062 0.421875 -2.71875 C 0.484375 -2.78125 0.554688 -2.8125 0.640625 -2.8125 C 0.722656 -2.820312 0.789062 -2.796875 0.84375 -2.734375 C 0.90625 -2.679688 0.9375 -2.609375 0.9375 -2.515625 L 0.96875 -0.296875 C 0.96875 -0.210938 0.9375 -0.140625 0.875 -0.078125 C 0.820312 -0.015625 0.753906 0.0195312 0.671875 0.03125 C 0.585938 0.03125 0.515625 0 0.453125 -0.0625 C 0.390625 -0.125 0.359375 -0.195312 0.359375 -0.28125 Z M 0.328125 -2.5 "/></g></g></g><g fill="#000000" fill-opacity="1"><g transform="translate(22.255446, 33.481279)"><g><path d="M -0.53125 -2.453125 C -0.550781 -2.523438 -0.539062 -2.597656 -0.5 -2.671875 C -0.46875 -2.742188 -0.414062 -2.785156 -0.34375 -2.796875 L 1.390625 -3.265625 C 1.460938 -3.285156 1.535156 -3.273438 1.609375 -3.234375 C 1.679688 -3.191406 1.726562 -3.132812 1.75 -3.0625 C 1.757812 -2.988281 1.742188 -2.914062 1.703125 -2.84375 C 1.660156 -2.769531 1.601562 -2.722656 1.53125 -2.703125 L 0.96875 -2.546875 L 1.46875 -0.671875 C 1.488281 -0.597656 1.476562 -0.523438 1.4375 -0.453125 C 1.40625 -0.378906 1.347656 -0.328125 1.265625 -0.296875 C 1.171875 -0.273438 1.085938 -0.285156 1.015625 -0.328125 C 0.941406 -0.378906 0.894531 -0.441406 0.875 -0.515625 L 0.375 -2.390625 L -0.203125 -2.234375 C -0.273438 -2.222656 -0.34375 -2.238281 -0.40625 -2.28125 C -0.476562 -2.320312 -0.519531 -2.378906 -0.53125 -2.453125 Z M -0.53125 -2.453125 "/></g></g></g><g fill="#000000" fill-opacity="1"><g transform="translate(26.533437, 32.043061)"><g><path d="M 0.109375 -0.4375 L -1.046875 -2.28125 C -1.085938 -2.34375 -1.097656 -2.421875 -1.078125 -2.515625 C -1.054688 -2.609375 -1.007812 -2.675781 -0.9375 -2.71875 L 0.375 -3.53125 C 0.4375 -3.570312 0.503906 -3.582031 0.578125 -3.5625 C 0.660156 -3.539062 0.71875 -3.5 0.75 -3.4375 C 0.789062 -3.375 0.800781 -3.304688 0.78125 -3.234375 C 0.757812 -3.160156 0.71875 -3.101562 0.65625 -3.0625 L -0.40625 -2.40625 L -0.09375 -1.921875 L 0.8125 -2.5 C 0.875 -2.53125 0.941406 -2.535156 1.015625 -2.515625 C 1.085938 -2.503906 1.144531 -2.46875 1.1875 -2.40625 C 1.226562 -2.332031 1.238281 -2.257812 1.21875 -2.1875 C 1.207031 -2.113281 1.171875 -2.0625 1.109375 -2.03125 L 0.203125 -1.453125 L 0.5 -0.96875 L 1.5625 -1.640625 C 1.632812 -1.679688 1.707031 -1.691406 1.78125 -1.671875 C 1.863281 -1.660156 1.925781 -1.617188 1.96875 -1.546875 C 2.007812 -1.484375 2.019531 -1.414062 2 -1.34375 C 1.976562 -1.269531 1.929688 -1.210938 1.859375 -1.171875 L 0.546875 -0.34375 C 0.472656 -0.300781 0.394531 -0.285156 0.3125 -0.296875 C 0.226562 -0.304688 0.160156 -0.351562 0.109375 -0.4375 Z M 0.109375 -0.4375 "/></g></g></g></svg>