<svg xmlns="http://www.w3.org/2000/svg" xmlns:xlink="http://www.w3.org/1999/xlink" width="500" zoomAndPan="magnify" viewBox="0 0 375 374.999991" height="500" preserveAspectRatio="xMidYMid meet" version="1.0"><defs><g/><clipPath id="28e8ad75cb"><path d="M 37.5 37.5 L 337.5 37.5 L 337.5 337.5 L 37.5 337.5 Z M 37.5 37.5 " clip-rule="nonzero"/></clipPath><clipPath id="0c52036379"><path d="M 187.5 37.5 C 104.65625 37.5 37.5 104.65625 37.5 187.5 C 37.5 270.34375 104.65625 337.5 187.5 337.5 C 270.34375 337.5 337.5 270.34375 337.5 187.5 C 337.5 104.65625 270.34375 37.5 187.5 37.5 Z M 187.5 37.5 " clip-rule="nonzero"/></clipPath><linearGradient x1="-0.00000133333" gradientTransform="matrix(1.171875, 0, 0, 1.171875, 37.500004, 37.499999)" y1="0" x2="255.999988" gradientUnits="userSpaceOnUse" y2="0" id="2535115e57"><stop stop-opacity="1" stop-color="rgb(65.098572%, 65.098572%, 65.098572%)" offset="0"/><stop stop-opacity="1" stop-color="rgb(65.234375%, 65.234375%, 65.234375%)" offset="0.0078125"/><stop stop-opacity="1" stop-color="rgb(65.507507%, 65.507507%, 65.507507%)" offset="0.015625"/><stop stop-opacity="1" stop-color="rgb(65.78064%, 65.78064%, 65.78064%)" offset="0.0234375"/><stop stop-opacity="1" stop-color="rgb(66.052246%, 66.052246%, 66.052246%)" offset="0.03125"/><stop stop-opacity="1" stop-color="rgb(66.325378%, 66.325378%, 66.325378%)" offset="0.0390625"/><stop stop-opacity="1" stop-color="rgb(66.598511%, 66.598511%, 66.598511%)" offset="0.046875"/><stop stop-opacity="1" stop-color="rgb(66.871643%, 66.871643%, 66.871643%)" offset="0.0546875"/><stop stop-opacity="1" stop-color="rgb(67.14325%, 67.14325%, 67.14325%)" offset="0.0625"/><stop stop-opacity="1" stop-color="rgb(67.416382%, 67.416382%, 67.416382%)" offset="0.0703125"/><stop stop-opacity="1" stop-color="rgb(67.689514%, 67.689514%, 67.689514%)" offset="0.078125"/><stop stop-opacity="1" stop-color="rgb(67.961121%, 67.961121%, 67.961121%)" offset="0.0859375"/><stop stop-opacity="1" stop-color="rgb(68.234253%, 68.234253%, 68.234253%)" offset="0.09375"/><stop stop-opacity="1" stop-color="rgb(68.507385%, 68.507385%, 68.507385%)" offset="0.101562"/><stop stop-opacity="1" stop-color="rgb(68.778992%, 68.778992%, 68.778992%)" offset="0.109375"/><stop stop-opacity="1" stop-color="rgb(69.052124%, 69.052124%, 69.052124%)" offset="0.117187"/><stop stop-opacity="1" stop-color="rgb(69.325256%, 69.325256%, 69.325256%)" offset="0.125"/><stop stop-opacity="1" stop-color="rgb(69.596863%, 69.596863%, 69.596863%)" offset="0.132812"/><stop stop-opacity="1" stop-color="rgb(69.869995%, 69.869995%, 69.869995%)" offset="0.140625"/><stop stop-opacity="1" stop-color="rgb(70.143127%, 70.143127%, 70.143127%)" offset="0.148437"/><stop stop-opacity="1" stop-color="rgb(70.41626%, 70.41626%, 70.41626%)" offset="0.15625"/><stop stop-opacity="1" stop-color="rgb(70.687866%, 70.687866%, 70.687866%)" offset="0.164062"/><stop stop-opacity="1" stop-color="rgb(70.960999%, 70.960999%, 70.960999%)" offset="0.171875"/><stop stop-opacity="1" stop-color="rgb(71.234131%, 71.234131%, 71.234131%)" offset="0.179687"/><stop stop-opacity="1" stop-color="rgb(71.505737%, 71.505737%, 71.505737%)" offset="0.1875"/><stop stop-opacity="1" stop-color="rgb(71.77887%, 71.77887%, 71.77887%)" offset="0.195312"/><stop stop-opacity="1" stop-color="rgb(72.052002%, 72.052002%, 72.052002%)" offset="0.203125"/><stop stop-opacity="1" stop-color="rgb(72.323608%, 72.323608%, 72.323608%)" offset="0.210937"/><stop stop-opacity="1" stop-color="rgb(72.596741%, 72.596741%, 72.596741%)" offset="0.21875"/><stop stop-opacity="1" stop-color="rgb(72.869873%, 72.869873%, 72.869873%)" offset="0.226562"/><stop stop-opacity="1" stop-color="rgb(73.141479%, 73.141479%, 73.141479%)" offset="0.234375"/><stop stop-opacity="1" stop-color="rgb(73.414612%, 73.414612%, 73.414612%)" offset="0.242187"/><stop stop-opacity="1" stop-color="rgb(73.687744%, 73.687744%, 73.687744%)" offset="0.25"/><stop stop-opacity="1" stop-color="rgb(73.959351%, 73.959351%, 73.959351%)" offset="0.257812"/><stop stop-opacity="1" stop-color="rgb(74.232483%, 74.232483%, 74.232483%)" offset="0.265625"/><stop stop-opacity="1" stop-color="rgb(74.505615%, 74.505615%, 74.505615%)" offset="0.273438"/><stop stop-opacity="1" stop-color="rgb(74.778748%, 74.778748%, 74.778748%)" offset="0.28125"/><stop stop-opacity="1" stop-color="rgb(75.050354%, 75.050354%, 75.050354%)" offset="0.289062"/><stop stop-opacity="1" stop-color="rgb(75.323486%, 75.323486%, 75.323486%)" offset="0.296875"/><stop stop-opacity="1" stop-color="rgb(75.596619%, 75.596619%, 75.596619%)" offset="0.304688"/><stop stop-opacity="1" stop-color="rgb(75.868225%, 75.868225%, 75.868225%)" offset="0.3125"/><stop stop-opacity="1" stop-color="rgb(76.141357%, 76.141357%, 76.141357%)" offset="0.320312"/><stop stop-opacity="1" stop-color="rgb(76.41449%, 76.41449%, 76.41449%)" offset="0.328125"/><stop stop-opacity="1" stop-color="rgb(76.686096%, 76.686096%, 76.686096%)" offset="0.335938"/><stop stop-opacity="1" stop-color="rgb(76.959229%, 76.959229%, 76.959229%)" offset="0.34375"/><stop stop-opacity="1" stop-color="rgb(77.232361%, 77.232361%, 77.232361%)" offset="0.351562"/><stop stop-opacity="1" stop-color="rgb(77.503967%, 77.503967%, 77.503967%)" offset="0.359375"/><stop stop-opacity="1" stop-color="rgb(77.7771%, 77.7771%, 77.7771%)" offset="0.367188"/><stop stop-opacity="1" stop-color="rgb(78.050232%, 78.050232%, 78.050232%)" offset="0.375"/><stop stop-opacity="1" stop-color="rgb(78.321838%, 78.321838%, 78.321838%)" offset="0.382812"/><stop stop-opacity="1" stop-color="rgb(78.594971%, 78.594971%, 78.594971%)" offset="0.390625"/><stop stop-opacity="1" stop-color="rgb(78.868103%, 78.868103%, 78.868103%)" offset="0.398438"/><stop stop-opacity="1" stop-color="rgb(79.141235%, 79.141235%, 79.141235%)" offset="0.40625"/><stop stop-opacity="1" stop-color="rgb(79.412842%, 79.412842%, 79.412842%)" offset="0.414062"/><stop stop-opacity="1" stop-color="rgb(79.685974%, 79.685974%, 79.685974%)" offset="0.421875"/><stop stop-opacity="1" stop-color="rgb(79.959106%, 79.959106%, 79.959106%)" offset="0.429688"/><stop stop-opacity="1" stop-color="rgb(80.230713%, 80.230713%, 80.230713%)" offset="0.4375"/><stop stop-opacity="1" stop-color="rgb(80.503845%, 80.503845%, 80.503845%)" offset="0.445312"/><stop stop-opacity="1" stop-color="rgb(80.776978%, 80.776978%, 80.776978%)" offset="0.453125"/><stop stop-opacity="1" stop-color="rgb(81.048584%, 81.048584%, 81.048584%)" offset="0.460938"/><stop stop-opacity="1" stop-color="rgb(81.321716%, 81.321716%, 81.321716%)" offset="0.46875"/><stop stop-opacity="1" stop-color="rgb(81.594849%, 81.594849%, 81.594849%)" offset="0.476562"/><stop stop-opacity="1" stop-color="rgb(81.866455%, 81.866455%, 81.866455%)" offset="0.484375"/><stop stop-opacity="1" stop-color="rgb(82.139587%, 82.139587%, 82.139587%)" offset="0.492188"/><stop stop-opacity="1" stop-color="rgb(82.41272%, 82.41272%, 82.41272%)" offset="0.5"/><stop stop-opacity="1" stop-color="rgb(82.684326%, 82.684326%, 82.684326%)" offset="0.507812"/><stop stop-opacity="1" stop-color="rgb(82.957458%, 82.957458%, 82.957458%)" offset="0.515625"/><stop stop-opacity="1" stop-color="rgb(83.230591%, 83.230591%, 83.230591%)" offset="0.523438"/><stop stop-opacity="1" stop-color="rgb(83.503723%, 83.503723%, 83.503723%)" offset="0.53125"/><stop stop-opacity="1" stop-color="rgb(83.77533%, 83.77533%, 83.77533%)" offset="0.539062"/><stop stop-opacity="1" stop-color="rgb(84.048462%, 84.048462%, 84.048462%)" offset="0.546875"/><stop stop-opacity="1" stop-color="rgb(84.321594%, 84.321594%, 84.321594%)" offset="0.554688"/><stop stop-opacity="1" stop-color="rgb(84.593201%, 84.593201%, 84.593201%)" offset="0.5625"/><stop stop-opacity="1" stop-color="rgb(84.866333%, 84.866333%, 84.866333%)" offset="0.570312"/><stop stop-opacity="1" stop-color="rgb(85.139465%, 85.139465%, 85.139465%)" offset="0.578125"/><stop stop-opacity="1" stop-color="rgb(85.411072%, 85.411072%, 85.411072%)" offset="0.585938"/><stop stop-opacity="1" stop-color="rgb(85.684204%, 85.684204%, 85.684204%)" offset="0.59375"/><stop stop-opacity="1" stop-color="rgb(85.957336%, 85.957336%, 85.957336%)" offset="0.601562"/><stop stop-opacity="1" stop-color="rgb(86.228943%, 86.228943%, 86.228943%)" offset="0.609375"/><stop stop-opacity="1" stop-color="rgb(86.502075%, 86.502075%, 86.502075%)" offset="0.617188"/><stop stop-opacity="1" stop-color="rgb(86.775208%, 86.775208%, 86.775208%)" offset="0.625"/><stop stop-opacity="1" stop-color="rgb(87.046814%, 87.046814%, 87.046814%)" offset="0.632812"/><stop stop-opacity="1" stop-color="rgb(87.319946%, 87.319946%, 87.319946%)" offset="0.640625"/><stop stop-opacity="1" stop-color="rgb(87.593079%, 87.593079%, 87.593079%)" offset="0.648438"/><stop stop-opacity="1" stop-color="rgb(87.866211%, 87.866211%, 87.866211%)" offset="0.65625"/><stop stop-opacity="1" stop-color="rgb(88.137817%, 88.137817%, 88.137817%)" offset="0.664062"/><stop stop-opacity="1" stop-color="rgb(88.41095%, 88.41095%, 88.41095%)" offset="0.671875"/><stop stop-opacity="1" stop-color="rgb(88.684082%, 88.684082%, 88.684082%)" offset="0.679688"/><stop stop-opacity="1" stop-color="rgb(88.955688%, 88.955688%, 88.955688%)" offset="0.6875"/><stop stop-opacity="1" stop-color="rgb(89.228821%, 89.228821%, 89.228821%)" offset="0.695312"/><stop stop-opacity="1" stop-color="rgb(89.501953%, 89.501953%, 89.501953%)" offset="0.703125"/><stop stop-opacity="1" stop-color="rgb(89.77356%, 89.77356%, 89.77356%)" offset="0.710938"/><stop stop-opacity="1" stop-color="rgb(90.046692%, 90.046692%, 90.046692%)" offset="0.71875"/><stop stop-opacity="1" stop-color="rgb(90.319824%, 90.319824%, 90.319824%)" offset="0.726562"/><stop stop-opacity="1" stop-color="rgb(90.591431%, 90.591431%, 90.591431%)" offset="0.734375"/><stop stop-opacity="1" stop-color="rgb(90.864563%, 90.864563%, 90.864563%)" offset="0.742188"/><stop stop-opacity="1" stop-color="rgb(91.137695%, 91.137695%, 91.137695%)" offset="0.75"/><stop stop-opacity="1" stop-color="rgb(91.409302%, 91.409302%, 91.409302%)" offset="0.757812"/><stop stop-opacity="1" stop-color="rgb(91.682434%, 91.682434%, 91.682434%)" offset="0.765625"/><stop stop-opacity="1" stop-color="rgb(91.955566%, 91.955566%, 91.955566%)" offset="0.773438"/><stop stop-opacity="1" stop-color="rgb(92.228699%, 92.228699%, 92.228699%)" offset="0.78125"/><stop stop-opacity="1" stop-color="rgb(92.500305%, 92.500305%, 92.500305%)" offset="0.789062"/><stop stop-opacity="1" stop-color="rgb(92.773438%, 92.773438%, 92.773438%)" offset="0.796875"/><stop stop-opacity="1" stop-color="rgb(93.04657%, 93.04657%, 93.04657%)" offset="0.804688"/><stop stop-opacity="1" stop-color="rgb(93.318176%, 93.318176%, 93.318176%)" offset="0.8125"/><stop stop-opacity="1" stop-color="rgb(93.591309%, 93.591309%, 93.591309%)" offset="0.820312"/><stop stop-opacity="1" stop-color="rgb(93.864441%, 93.864441%, 93.864441%)" offset="0.828125"/><stop stop-opacity="1" stop-color="rgb(94.136047%, 94.136047%, 94.136047%)" offset="0.835938"/><stop stop-opacity="1" stop-color="rgb(94.40918%, 94.40918%, 94.40918%)" offset="0.84375"/><stop stop-opacity="1" stop-color="rgb(94.682312%, 94.682312%, 94.682312%)" offset="0.851562"/><stop stop-opacity="1" stop-color="rgb(94.953918%, 94.953918%, 94.953918%)" offset="0.859375"/><stop stop-opacity="1" stop-color="rgb(95.227051%, 95.227051%, 95.227051%)" offset="0.867188"/><stop stop-opacity="1" stop-color="rgb(95.500183%, 95.500183%, 95.500183%)" offset="0.875"/><stop stop-opacity="1" stop-color="rgb(95.77179%, 95.77179%, 95.77179%)" offset="0.882812"/><stop stop-opacity="1" stop-color="rgb(96.044922%, 96.044922%, 96.044922%)" offset="0.890625"/><stop stop-opacity="1" stop-color="rgb(96.318054%, 96.318054%, 96.318054%)" offset="0.898438"/><stop stop-opacity="1" stop-color="rgb(96.591187%, 96.591187%, 96.591187%)" offset="0.90625"/><stop stop-opacity="1" stop-color="rgb(96.862793%, 96.862793%, 96.862793%)" offset="0.914062"/><stop stop-opacity="1" stop-color="rgb(97.135925%, 97.135925%, 97.135925%)" offset="0.921875"/><stop stop-opacity="1" stop-color="rgb(97.409058%, 97.409058%, 97.409058%)" offset="0.929688"/><stop stop-opacity="1" stop-color="rgb(97.680664%, 97.680664%, 97.680664%)" offset="0.9375"/><stop stop-opacity="1" stop-color="rgb(97.953796%, 97.953796%, 97.953796%)" offset="0.945312"/><stop stop-opacity="1" stop-color="rgb(98.226929%, 98.226929%, 98.226929%)" offset="0.953125"/><stop stop-opacity="1" stop-color="rgb(98.498535%, 98.498535%, 98.498535%)" offset="0.960938"/><stop stop-opacity="1" stop-color="rgb(98.771667%, 98.771667%, 98.771667%)" offset="0.96875"/><stop stop-opacity="1" stop-color="rgb(99.0448%, 99.0448%, 99.0448%)" offset="0.976562"/><stop stop-opacity="1" stop-color="rgb(99.316406%, 99.316406%, 99.316406%)" offset="0.984375"/><stop stop-opacity="1" stop-color="rgb(99.589539%, 99.589539%, 99.589539%)" offset="0.992188"/><stop stop-opacity="1" stop-color="rgb(99.862671%, 99.862671%, 99.862671%)" offset="1"/></linearGradient><clipPath id="0fa76ac202"><path d="M 97.695312 97.695312 L 277.304688 97.695312 L 277.304688 277.304688 L 97.695312 277.304688 Z M 97.695312 97.695312 " clip-rule="nonzero"/></clipPath><clipPath id="3a6a8e4578"><path d="M 187.5 97.695312 C 137.902344 97.695312 97.695312 137.902344 97.695312 187.5 C 97.695312 237.097656 137.902344 277.304688 187.5 277.304688 C 237.097656 277.304688 277.304688 237.097656 277.304688 187.5 C 277.304688 137.902344 237.097656 97.695312 187.5 97.695312 Z M 187.5 97.695312 " clip-rule="nonzero"/></clipPath><linearGradient x1="-0.00000665705" gradientTransform="matrix(0.701604, 0, 0, 0.701604, 97.694681, 97.694668)" y1="0" x2="255.999988" gradientUnits="userSpaceOnUse" y2="0" id="4d3702d204"><stop stop-opacity="1" stop-color="rgb(100%, 19.198608%, 19.198608%)" offset="0"/><stop stop-opacity="1" stop-color="rgb(100%, 19.345093%, 19.241333%)" offset="0.0078125"/><stop stop-opacity="1" stop-color="rgb(100%, 19.639587%, 19.328308%)" offset="0.015625"/><stop stop-opacity="1" stop-color="rgb(100%, 19.934082%, 19.413757%)" offset="0.0234375"/><stop stop-opacity="1" stop-color="rgb(100%, 20.230103%, 19.499207%)" offset="0.03125"/><stop stop-opacity="1" stop-color="rgb(100%, 20.524597%, 19.586182%)" offset="0.0390625"/><stop stop-opacity="1" stop-color="rgb(100%, 20.819092%, 19.671631%)" offset="0.046875"/><stop stop-opacity="1" stop-color="rgb(100%, 21.113586%, 19.75708%)" offset="0.0546875"/><stop stop-opacity="1" stop-color="rgb(100%, 21.408081%, 19.844055%)" offset="0.0625"/><stop stop-opacity="1" stop-color="rgb(100%, 21.702576%, 19.929504%)" offset="0.0703125"/><stop stop-opacity="1" stop-color="rgb(100%, 21.99707%, 20.014954%)" offset="0.078125"/><stop stop-opacity="1" stop-color="rgb(100%, 22.291565%, 20.101929%)" offset="0.0859375"/><stop stop-opacity="1" stop-color="rgb(100%, 22.58606%, 20.187378%)" offset="0.09375"/><stop stop-opacity="1" stop-color="rgb(100%, 22.880554%, 20.272827%)" offset="0.101562"/><stop stop-opacity="1" stop-color="rgb(100%, 23.175049%, 20.359802%)" offset="0.109375"/><stop stop-opacity="1" stop-color="rgb(100%, 23.469543%, 20.445251%)" offset="0.117188"/><stop stop-opacity="1" stop-color="rgb(100%, 23.764038%, 20.530701%)" offset="0.125"/><stop stop-opacity="1" stop-color="rgb(100%, 24.058533%, 20.617676%)" offset="0.132812"/><stop stop-opacity="1" stop-color="rgb(100%, 24.353027%, 20.703125%)" offset="0.140625"/><stop stop-opacity="1" stop-color="rgb(100%, 24.647522%, 20.788574%)" offset="0.148437"/><stop stop-opacity="1" stop-color="rgb(100%, 24.942017%, 20.874023%)" offset="0.15625"/><stop stop-opacity="1" stop-color="rgb(100%, 25.236511%, 20.960999%)" offset="0.164063"/><stop stop-opacity="1" stop-color="rgb(100%, 25.531006%, 21.046448%)" offset="0.171875"/><stop stop-opacity="1" stop-color="rgb(100%, 25.8255%, 21.131897%)" offset="0.179688"/><stop stop-opacity="1" stop-color="rgb(100%, 26.119995%, 21.218872%)" offset="0.1875"/><stop stop-opacity="1" stop-color="rgb(100%, 26.41449%, 21.304321%)" offset="0.195312"/><stop stop-opacity="1" stop-color="rgb(100%, 26.708984%, 21.389771%)" offset="0.203125"/><stop stop-opacity="1" stop-color="rgb(100%, 27.003479%, 21.476746%)" offset="0.210937"/><stop stop-opacity="1" stop-color="rgb(100%, 27.297974%, 21.562195%)" offset="0.21875"/><stop stop-opacity="1" stop-color="rgb(100%, 27.592468%, 21.647644%)" offset="0.226563"/><stop stop-opacity="1" stop-color="rgb(100%, 27.886963%, 21.734619%)" offset="0.234375"/><stop stop-opacity="1" stop-color="rgb(100%, 28.181458%, 21.820068%)" offset="0.242188"/><stop stop-opacity="1" stop-color="rgb(100%, 28.475952%, 21.905518%)" offset="0.25"/><stop stop-opacity="1" stop-color="rgb(100%, 28.770447%, 21.992493%)" offset="0.257812"/><stop stop-opacity="1" stop-color="rgb(100%, 29.064941%, 22.077942%)" offset="0.265625"/><stop stop-opacity="1" stop-color="rgb(100%, 29.359436%, 22.163391%)" offset="0.273438"/><stop stop-opacity="1" stop-color="rgb(100%, 29.653931%, 22.250366%)" offset="0.28125"/><stop stop-opacity="1" stop-color="rgb(100%, 29.948425%, 22.335815%)" offset="0.289062"/><stop stop-opacity="1" stop-color="rgb(100%, 30.24292%, 22.421265%)" offset="0.296875"/><stop stop-opacity="1" stop-color="rgb(100%, 30.537415%, 22.50824%)" offset="0.304687"/><stop stop-opacity="1" stop-color="rgb(100%, 30.831909%, 22.593689%)" offset="0.3125"/><stop stop-opacity="1" stop-color="rgb(100%, 31.126404%, 22.679138%)" offset="0.320313"/><stop stop-opacity="1" stop-color="rgb(100%, 31.420898%, 22.766113%)" offset="0.328125"/><stop stop-opacity="1" stop-color="rgb(100%, 31.715393%, 22.851562%)" offset="0.335938"/><stop stop-opacity="1" stop-color="rgb(100%, 32.009888%, 22.937012%)" offset="0.34375"/><stop stop-opacity="1" stop-color="rgb(100%, 32.304382%, 23.022461%)" offset="0.351562"/><stop stop-opacity="1" stop-color="rgb(100%, 32.600403%, 23.109436%)" offset="0.359375"/><stop stop-opacity="1" stop-color="rgb(100%, 32.894897%, 23.194885%)" offset="0.367188"/><stop stop-opacity="1" stop-color="rgb(100%, 33.189392%, 23.280334%)" offset="0.375"/><stop stop-opacity="1" stop-color="rgb(100%, 33.483887%, 23.36731%)" offset="0.382812"/><stop stop-opacity="1" stop-color="rgb(100%, 33.778381%, 23.452759%)" offset="0.390625"/><stop stop-opacity="1" stop-color="rgb(100%, 34.072876%, 23.538208%)" offset="0.398438"/><stop stop-opacity="1" stop-color="rgb(100%, 34.367371%, 23.625183%)" offset="0.40625"/><stop stop-opacity="1" stop-color="rgb(100%, 34.661865%, 23.710632%)" offset="0.414062"/><stop stop-opacity="1" stop-color="rgb(100%, 34.95636%, 23.796082%)" offset="0.421875"/><stop stop-opacity="1" stop-color="rgb(100%, 35.250854%, 23.883057%)" offset="0.429687"/><stop stop-opacity="1" stop-color="rgb(100%, 35.545349%, 23.968506%)" offset="0.4375"/><stop stop-opacity="1" stop-color="rgb(100%, 35.839844%, 24.053955%)" offset="0.445313"/><stop stop-opacity="1" stop-color="rgb(100%, 36.134338%, 24.14093%)" offset="0.453125"/><stop stop-opacity="1" stop-color="rgb(100%, 36.428833%, 24.226379%)" offset="0.460938"/><stop stop-opacity="1" stop-color="rgb(100%, 36.723328%, 24.311829%)" offset="0.46875"/><stop stop-opacity="1" stop-color="rgb(100%, 37.017822%, 24.398804%)" offset="0.476562"/><stop stop-opacity="1" stop-color="rgb(100%, 37.312317%, 24.484253%)" offset="0.484375"/><stop stop-opacity="1" stop-color="rgb(100%, 37.606812%, 24.569702%)" offset="0.492188"/><stop stop-opacity="1" stop-color="rgb(100%, 37.901306%, 24.656677%)" offset="0.5"/><stop stop-opacity="1" stop-color="rgb(100%, 38.195801%, 24.742126%)" offset="0.507812"/><stop stop-opacity="1" stop-color="rgb(100%, 38.490295%, 24.827576%)" offset="0.515625"/><stop stop-opacity="1" stop-color="rgb(100%, 38.78479%, 24.914551%)" offset="0.523438"/><stop stop-opacity="1" stop-color="rgb(100%, 39.079285%, 25%)" offset="0.53125"/><stop stop-opacity="1" stop-color="rgb(100%, 39.373779%, 25.085449%)" offset="0.539062"/><stop stop-opacity="1" stop-color="rgb(100%, 39.668274%, 25.170898%)" offset="0.546875"/><stop stop-opacity="1" stop-color="rgb(100%, 39.962769%, 25.257874%)" offset="0.554688"/><stop stop-opacity="1" stop-color="rgb(100%, 40.257263%, 25.343323%)" offset="0.5625"/><stop stop-opacity="1" stop-color="rgb(100%, 40.551758%, 25.428772%)" offset="0.570312"/><stop stop-opacity="1" stop-color="rgb(100%, 40.846252%, 25.515747%)" offset="0.578125"/><stop stop-opacity="1" stop-color="rgb(100%, 41.140747%, 25.601196%)" offset="0.585937"/><stop stop-opacity="1" stop-color="rgb(100%, 41.435242%, 25.686646%)" offset="0.59375"/><stop stop-opacity="1" stop-color="rgb(100%, 41.729736%, 25.773621%)" offset="0.601562"/><stop stop-opacity="1" stop-color="rgb(100%, 42.024231%, 25.85907%)" offset="0.609375"/><stop stop-opacity="1" stop-color="rgb(100%, 42.318726%, 25.944519%)" offset="0.617187"/><stop stop-opacity="1" stop-color="rgb(100%, 42.61322%, 26.031494%)" offset="0.625"/><stop stop-opacity="1" stop-color="rgb(100%, 42.907715%, 26.116943%)" offset="0.632813"/><stop stop-opacity="1" stop-color="rgb(100%, 43.202209%, 26.202393%)" offset="0.640625"/><stop stop-opacity="1" stop-color="rgb(100%, 43.496704%, 26.289368%)" offset="0.648438"/><stop stop-opacity="1" stop-color="rgb(100%, 43.791199%, 26.374817%)" offset="0.65625"/><stop stop-opacity="1" stop-color="rgb(100%, 44.085693%, 26.460266%)" offset="0.664063"/><stop stop-opacity="1" stop-color="rgb(100%, 44.380188%, 26.547241%)" offset="0.671875"/><stop stop-opacity="1" stop-color="rgb(100%, 44.674683%, 26.63269%)" offset="0.679688"/><stop stop-opacity="1" stop-color="rgb(100%, 44.970703%, 26.71814%)" offset="0.6875"/><stop stop-opacity="1" stop-color="rgb(100%, 45.265198%, 26.805115%)" offset="0.695312"/><stop stop-opacity="1" stop-color="rgb(100%, 45.559692%, 26.890564%)" offset="0.703125"/><stop stop-opacity="1" stop-color="rgb(100%, 45.854187%, 26.976013%)" offset="0.710938"/><stop stop-opacity="1" stop-color="rgb(100%, 46.148682%, 27.062988%)" offset="0.71875"/><stop stop-opacity="1" stop-color="rgb(100%, 46.443176%, 27.148438%)" offset="0.726562"/><stop stop-opacity="1" stop-color="rgb(100%, 46.737671%, 27.233887%)" offset="0.734375"/><stop stop-opacity="1" stop-color="rgb(100%, 47.032166%, 27.319336%)" offset="0.742188"/><stop stop-opacity="1" stop-color="rgb(100%, 47.32666%, 27.406311%)" offset="0.75"/><stop stop-opacity="1" stop-color="rgb(100%, 47.621155%, 27.49176%)" offset="0.757812"/><stop stop-opacity="1" stop-color="rgb(100%, 47.915649%, 27.577209%)" offset="0.765625"/><stop stop-opacity="1" stop-color="rgb(100%, 48.210144%, 27.664185%)" offset="0.773438"/><stop stop-opacity="1" stop-color="rgb(100%, 48.504639%, 27.749634%)" offset="0.78125"/><stop stop-opacity="1" stop-color="rgb(100%, 48.799133%, 27.835083%)" offset="0.789062"/><stop stop-opacity="1" stop-color="rgb(100%, 49.093628%, 27.922058%)" offset="0.796875"/><stop stop-opacity="1" stop-color="rgb(100%, 49.388123%, 28.007507%)" offset="0.804688"/><stop stop-opacity="1" stop-color="rgb(100%, 49.682617%, 28.092957%)" offset="0.8125"/><stop stop-opacity="1" stop-color="rgb(100%, 49.977112%, 28.179932%)" offset="0.820312"/><stop stop-opacity="1" stop-color="rgb(100%, 50.271606%, 28.265381%)" offset="0.828125"/><stop stop-opacity="1" stop-color="rgb(100%, 50.566101%, 28.35083%)" offset="0.835937"/><stop stop-opacity="1" stop-color="rgb(100%, 50.860596%, 28.437805%)" offset="0.84375"/><stop stop-opacity="1" stop-color="rgb(100%, 51.15509%, 28.523254%)" offset="0.851562"/><stop stop-opacity="1" stop-color="rgb(100%, 51.449585%, 28.608704%)" offset="0.859375"/><stop stop-opacity="1" stop-color="rgb(100%, 51.74408%, 28.695679%)" offset="0.867187"/><stop stop-opacity="1" stop-color="rgb(100%, 52.038574%, 28.781128%)" offset="0.875"/><stop stop-opacity="1" stop-color="rgb(100%, 52.333069%, 28.866577%)" offset="0.882813"/><stop stop-opacity="1" stop-color="rgb(100%, 52.627563%, 28.953552%)" offset="0.890625"/><stop stop-opacity="1" stop-color="rgb(100%, 52.922058%, 29.039001%)" offset="0.898438"/><stop stop-opacity="1" stop-color="rgb(100%, 53.216553%, 29.124451%)" offset="0.90625"/><stop stop-opacity="1" stop-color="rgb(100%, 53.511047%, 29.211426%)" offset="0.914063"/><stop stop-opacity="1" stop-color="rgb(100%, 53.805542%, 29.296875%)" offset="0.921875"/><stop stop-opacity="1" stop-color="rgb(100%, 54.100037%, 29.382324%)" offset="0.929688"/><stop stop-opacity="1" stop-color="rgb(100%, 54.394531%, 29.467773%)" offset="0.9375"/><stop stop-opacity="1" stop-color="rgb(100%, 54.689026%, 29.554749%)" offset="0.945312"/><stop stop-opacity="1" stop-color="rgb(100%, 54.983521%, 29.640198%)" offset="0.953125"/><stop stop-opacity="1" stop-color="rgb(100%, 55.278015%, 29.725647%)" offset="0.960938"/><stop stop-opacity="1" stop-color="rgb(100%, 55.57251%, 29.812622%)" offset="0.96875"/><stop stop-opacity="1" stop-color="rgb(100%, 55.867004%, 29.898071%)" offset="0.976562"/><stop stop-opacity="1" stop-color="rgb(100%, 56.161499%, 29.983521%)" offset="0.984375"/><stop stop-opacity="1" stop-color="rgb(100%, 56.455994%, 30.070496%)" offset="0.992188"/><stop stop-opacity="1" stop-color="rgb(100%, 56.750488%, 30.155945%)" offset="1"/></linearGradient><clipPath id="bb8536281e"><path d="M 97.695312 97.695312 L 276.945312 97.695312 L 276.945312 276.945312 L 97.695312 276.945312 Z M 97.695312 97.695312 " clip-rule="nonzero"/></clipPath><clipPath id="a697b05eb1"><path d="M 187.496094 97.695312 C 137.898438 97.695312 97.695312 137.898438 97.695312 187.496094 C 97.695312 237.089844 137.898438 277.296875 187.496094 277.296875 C 237.089844 277.296875 277.296875 237.089844 277.296875 187.496094 C 277.296875 137.898438 237.089844 97.695312 187.496094 97.695312 Z M 187.496094 97.695312 " clip-rule="nonzero"/></clipPath><clipPath id="9e26df82de"><path d="M 125.9375 128 L 205.4375 128 L 205.4375 200 L 125.9375 200 Z M 125.9375 128 " clip-rule="nonzero"/></clipPath><clipPath id="18243c71d6"><path d="M 175.113281 174 L 230 174 L 230 229 L 175.113281 229 Z M 175.113281 174 " clip-rule="nonzero"/></clipPath><clipPath id="ea5f0aa051"><path d="M 57.386719 179.667969 L 79 179.667969 L 79 195.417969 L 57.386719 195.417969 Z M 57.386719 179.667969 " clip-rule="nonzero"/></clipPath><clipPath id="5bb055a0e4"><path d="M 302 179.441406 L 309 179.441406 L 309 195.191406 L 302 195.191406 Z M 302 179.441406 " clip-rule="nonzero"/></clipPath><clipPath id="b4a2855aa8"><path d="M 293.117188 181 L 300 181 L 300 193 L 293.117188 193 Z M 293.117188 181 " clip-rule="nonzero"/></clipPath><clipPath id="74ccfa6a91"><path d="M 311 181 L 317.867188 181 L 317.867188 193 L 311 193 Z M 311 181 " clip-rule="nonzero"/></clipPath></defs><g clip-path="url(#28e8ad75cb)"><g clip-path="url(#0c52036379)"><path fill="url(#2535115e57)" d="M 37.5 37.5 L 37.5 337.5 L 337.5 337.5 L 337.5 37.5 Z M 37.5 37.5 " fill-rule="nonzero"/><path stroke-linecap="butt" transform="matrix(0.75, 0, 0, 0.75, 37.500002, 37.499998)" fill="none" stroke-linejoin="miter" d="M 200.00001 0.00000328333 C 89.54167 0.00000328333 -0.00000271667 89.541676 -0.00000271667 200.000016 C -0.00000271667 310.458357 89.54167 400.00003 200.00001 400.00003 C 310.458351 400.00003 400.000024 310.458357 400.000024 200.000016 C 400.000024 89.541676 310.458351 0.00000328333 200.00001 0.00000328333 Z M 200.00001 0.00000328333 " stroke="#000000" stroke-width="12" stroke-opacity="1" stroke-miterlimit="4"/></g></g><g clip-path="url(#0fa76ac202)"><g clip-path="url(#3a6a8e4578)"><path fill="url(#4d3702d204)" d="M 97.695312 97.695312 L 97.695312 277.304688 L 277.304688 277.304688 L 277.304688 97.695312 Z M 97.695312 97.695312 " fill-rule="nonzero"/></g></g><g clip-path="url(#bb8536281e)"><g clip-path="url(#a697b05eb1)"><path stroke-linecap="butt" transform="matrix(0.75, 0, 0, 0.75, 97.694676, 97.694672)" fill="none" stroke-linejoin="miter" d="M 119.735231 0.00085402 C 53.605018 0.00085402 0.00084802 53.605024 0.00084802 119.735237 C 0.00084802 185.860241 53.605018 239.46962 119.735231 239.46962 C 185.860235 239.46962 239.469614 185.860241 239.469614 119.735237 C 239.469614 53.605024 185.860235 0.00085402 119.735231 0.00085402 Z M 119.735231 0.00085402 " stroke="#000000" stroke-width="12" stroke-opacity="1" stroke-miterlimit="4"/></g></g><g clip-path="url(#9e26df82de)"><path fill="#00d8ff" d="M 191.273438 151.894531 C 190.429688 151.601562 189.578125 151.332031 188.71875 151.085938 C 188.863281 150.492188 188.996094 149.910156 189.113281 149.335938 C 191.046875 139.910156 189.78125 132.316406 185.460938 129.816406 C 181.3125 127.417969 174.535156 129.917969 167.6875 135.894531 C 167.011719 136.484375 166.351562 137.089844 165.707031 137.714844 C 165.277344 137.296875 164.835938 136.890625 164.390625 136.492188 C 157.214844 130.105469 150.023438 127.410156 145.703125 129.917969 C 141.5625 132.324219 140.335938 139.460938 142.078125 148.394531 C 142.25 149.28125 142.449219 150.160156 142.664062 151.035156 C 141.648438 151.324219 140.664062 151.632812 139.726562 151.964844 C 131.3125 154.90625 125.9375 159.515625 125.9375 164.296875 C 125.9375 169.234375 131.707031 174.1875 140.46875 177.191406 C 141.179688 177.433594 141.894531 177.660156 142.617188 177.867188 C 142.382812 178.808594 142.175781 179.757812 141.992188 180.710938 C 140.332031 189.488281 141.628906 196.457031 145.761719 198.847656 C 150.027344 201.316406 157.1875 198.78125 164.160156 192.667969 C 164.726562 192.171875 165.277344 191.660156 165.816406 191.136719 C 166.515625 191.808594 167.230469 192.464844 167.964844 193.101562 C 174.71875 198.929688 181.390625 201.28125 185.515625 198.886719 C 189.777344 196.410156 191.164062 188.921875 189.367188 179.8125 C 189.222656 179.101562 189.066406 178.390625 188.890625 177.683594 C 189.390625 177.535156 189.886719 177.382812 190.367188 177.222656 C 199.476562 174.195312 205.402344 169.300781 205.402344 164.296875 C 205.402344 159.496094 199.859375 154.855469 191.273438 151.894531 Z M 189.300781 173.988281 C 188.863281 174.132812 188.417969 174.273438 187.964844 174.410156 C 186.957031 171.214844 185.601562 167.820312 183.941406 164.3125 C 185.527344 160.886719 186.832031 157.535156 187.808594 154.363281 C 188.621094 154.601562 189.410156 154.847656 190.171875 155.113281 C 197.523438 157.652344 202.007812 161.402344 202.007812 164.296875 C 202.007812 167.375 197.164062 171.375 189.300781 173.988281 Z M 186.035156 180.476562 C 186.832031 184.503906 186.945312 188.144531 186.417969 190.992188 C 185.945312 193.550781 184.992188 195.257812 183.816406 195.941406 C 181.3125 197.394531 175.957031 195.503906 170.179688 190.519531 C 169.496094 189.929688 168.832031 189.320312 168.183594 188.691406 C 170.421875 186.238281 172.660156 183.382812 174.84375 180.210938 C 178.683594 179.871094 182.3125 179.308594 185.605469 178.546875 C 185.765625 179.1875 185.90625 179.828125 186.035156 180.476562 Z M 153.03125 195.6875 C 150.582031 196.554688 148.632812 196.578125 147.457031 195.898438 C 144.949219 194.449219 143.90625 188.851562 145.328125 181.34375 C 145.5 180.457031 145.691406 179.574219 145.910156 178.699219 C 149.164062 179.421875 152.765625 179.941406 156.617188 180.253906 C 158.816406 183.355469 161.121094 186.207031 163.441406 188.707031 C 162.945312 189.183594 162.441406 189.652344 161.925781 190.105469 C 158.84375 192.808594 155.753906 194.722656 153.03125 195.6875 Z M 141.566406 173.96875 C 137.691406 172.640625 134.492188 170.917969 132.300781 169.03125 C 130.328125 167.339844 129.332031 165.660156 129.332031 164.296875 C 129.332031 161.394531 133.648438 157.691406 140.84375 155.175781 C 141.714844 154.871094 142.628906 154.585938 143.578125 154.3125 C 144.574219 157.558594 145.875 160.949219 147.449219 164.378906 C 145.855469 167.859375 144.53125 171.304688 143.527344 174.585938 C 142.871094 174.398438 142.214844 174.191406 141.566406 173.96875 Z M 145.410156 147.742188 C 143.917969 140.089844 144.910156 134.3125 147.40625 132.867188 C 150.0625 131.320312 155.941406 133.523438 162.136719 139.039062 C 162.542969 139.402344 162.9375 139.769531 163.328125 140.144531 C 161.019531 142.628906 158.738281 145.460938 156.558594 148.542969 C 152.824219 148.890625 149.246094 149.449219 145.957031 150.195312 C 145.753906 149.382812 145.570312 148.566406 145.410156 147.742188 Z M 179.6875 156.230469 C 178.910156 154.882812 178.105469 153.554688 177.269531 152.246094 C 179.808594 152.566406 182.234375 152.992188 184.515625 153.515625 C 183.832031 155.714844 182.980469 158.015625 181.972656 160.375 C 181.238281 158.980469 180.476562 157.597656 179.6875 156.230469 Z M 165.710938 142.578125 C 167.273438 144.277344 168.84375 146.175781 170.386719 148.238281 C 167.257812 148.089844 164.121094 148.089844 160.992188 148.234375 C 162.539062 146.195312 164.121094 144.296875 165.710938 142.578125 Z M 151.640625 156.253906 C 150.863281 157.609375 150.113281 158.984375 149.398438 160.375 C 148.410156 158.023438 147.5625 155.710938 146.875 153.476562 C 149.140625 152.96875 151.558594 152.554688 154.078125 152.238281 C 153.234375 153.558594 152.421875 154.894531 151.640625 156.253906 Z M 154.148438 176.597656 C 151.546875 176.304688 149.09375 175.910156 146.824219 175.414062 C 147.527344 173.144531 148.390625 170.78125 149.402344 168.378906 C 150.121094 169.773438 150.871094 171.148438 151.65625 172.503906 C 152.460938 173.898438 153.292969 175.265625 154.148438 176.597656 Z M 165.804688 186.253906 C 164.195312 184.515625 162.589844 182.589844 161.023438 180.519531 C 162.542969 180.578125 164.09375 180.609375 165.671875 180.609375 C 167.292969 180.609375 168.890625 180.570312 170.46875 180.5 C 168.921875 182.609375 167.359375 184.539062 165.804688 186.253906 Z M 182.007812 168.257812 C 183.066406 170.6875 183.964844 173.035156 184.675781 175.269531 C 182.371094 175.796875 179.882812 176.21875 177.261719 176.535156 C 178.101562 175.199219 178.914062 173.847656 179.703125 172.480469 C 180.5 171.089844 181.269531 169.683594 182.007812 168.257812 Z M 176.761719 170.78125 C 175.558594 172.875 174.285156 174.933594 172.949219 176.949219 C 170.527344 177.121094 168.097656 177.207031 165.671875 177.203125 C 163.199219 177.203125 160.792969 177.125 158.476562 176.976562 C 157.105469 174.964844 155.808594 172.90625 154.59375 170.796875 C 153.382812 168.703125 152.25 166.558594 151.203125 164.378906 C 152.25 162.195312 153.375 160.050781 154.582031 157.953125 C 155.789062 155.855469 157.074219 153.804688 158.433594 151.800781 C 160.796875 151.621094 163.222656 151.53125 165.671875 151.53125 C 168.132812 151.53125 170.558594 151.625 172.921875 151.804688 C 174.269531 153.800781 175.546875 155.847656 176.75 157.933594 C 177.960938 160.027344 179.101562 162.160156 180.175781 164.328125 C 179.113281 166.519531 177.976562 168.671875 176.761719 170.78125 Z M 183.761719 132.765625 C 186.425781 134.304688 187.460938 140.507812 185.789062 148.648438 C 185.679688 149.167969 185.5625 149.695312 185.429688 150.230469 C 182.132812 149.46875 178.554688 148.902344 174.804688 148.546875 C 172.621094 145.429688 170.359375 142.59375 168.085938 140.140625 C 168.683594 139.566406 169.292969 139.003906 169.914062 138.460938 C 175.78125 133.339844 181.265625 131.320312 183.761719 132.765625 Z M 165.671875 157.179688 C 169.589844 157.179688 172.765625 160.367188 172.765625 164.296875 C 172.765625 168.226562 169.589844 171.414062 165.671875 171.414062 C 161.753906 171.414062 158.574219 168.226562 158.574219 164.296875 C 158.574219 160.367188 161.753906 157.179688 165.671875 157.179688 Z M 165.671875 157.179688 " fill-opacity="1" fill-rule="nonzero"/></g><path fill="#000000" d="M 231.121094 196.597656 L 231.125 196.597656 L 231.125 196.585938 Z M 231.121094 196.597656 " fill-opacity="1" fill-rule="nonzero"/><path fill="#f2bb30" d="M 238.664062 228.347656 C 243.753906 228.347656 245.636719 224.796875 247.40625 219.472656 C 249.238281 213.992188 249.160156 208.71875 247.40625 201.695312 C 246.144531 196.640625 243.757812 192.824219 238.664062 192.824219 L 232.105469 192.824219 L 232.105469 200.585938 C 232.105469 206.609375 226.996094 211.683594 221.171875 211.683594 L 203.6875 211.683594 C 198.90625 211.683594 194.945312 215.777344 194.945312 220.574219 L 194.945312 237.238281 C 194.945312 241.984375 199.070312 244.769531 203.6875 246.128906 C 209.21875 247.746094 214.539062 248.039062 221.167969 246.128906 C 225.570312 244.851562 229.910156 242.277344 229.910156 237.238281 L 229.910156 230.574219 L 212.441406 230.574219 L 212.441406 228.351562 L 238.664062 228.351562 Z M 222.265625 235.011719 C 224.078125 235.011719 225.554688 236.503906 225.554688 238.335938 C 225.554688 240.1875 224.082031 241.675781 222.265625 241.675781 C 220.460938 241.675781 218.972656 240.167969 218.972656 238.335938 C 218.992188 236.484375 220.46875 235.011719 222.265625 235.011719 Z M 222.265625 235.011719 " fill-opacity="1" fill-rule="nonzero"/><g clip-path="url(#18243c71d6)"><path fill="#35668f" d="M 185.941406 228.351562 L 191.949219 228.351562 L 191.949219 220.359375 C 191.949219 214.582031 196.941406 209.488281 202.878906 209.488281 L 220.359375 209.488281 C 225.222656 209.488281 229.101562 205.480469 229.101562 200.601562 L 229.101562 183.921875 C 229.101562 179.175781 225.109375 175.621094 220.359375 174.824219 C 214.5 173.855469 208.132812 173.910156 202.878906 174.839844 L 202.882812 174.839844 C 195.484375 176.144531 194.144531 178.878906 194.144531 183.933594 L 194.144531 190.597656 L 211.644531 190.597656 L 211.644531 192.828125 L 187.578125 192.828125 C 182.488281 192.828125 178.03125 195.886719 176.644531 201.699219 C 175.042969 208.363281 174.976562 212.519531 176.644531 219.476562 C 177.886719 224.648438 180.851562 228.351562 185.941406 228.351562 Z M 201.785156 186.148438 C 199.972656 186.148438 198.496094 184.65625 198.496094 182.824219 C 198.515625 180.972656 199.972656 179.484375 201.785156 179.484375 C 203.589844 179.484375 205.078125 180.984375 205.078125 182.824219 C 205.078125 184.660156 203.605469 186.148438 201.785156 186.148438 Z M 201.785156 186.148438 " fill-opacity="1" fill-rule="nonzero"/></g><g clip-path="url(#ea5f0aa051)"><path fill="#000000" d="M 61.074219 186.996094 C 60.894531 187.277344 60.605469 187.480469 60.210938 187.605469 C 60.605469 187.730469 60.894531 187.933594 61.074219 188.21875 C 61.253906 188.5 61.347656 188.929688 61.347656 189.507812 L 61.347656 192.222656 C 61.347656 192.628906 61.449219 192.9375 61.660156 193.152344 C 61.871094 193.367188 62.175781 193.476562 62.585938 193.476562 L 62.890625 193.476562 L 62.890625 195.546875 L 61.90625 195.546875 C 60.855469 195.546875 60.058594 195.285156 59.515625 194.765625 C 58.972656 194.246094 58.699219 193.496094 58.699219 192.511719 L 58.699219 189.441406 C 58.699219 189.179688 58.636719 188.980469 58.503906 188.847656 C 58.375 188.710938 58.191406 188.640625 57.953125 188.640625 L 57.394531 188.640625 L 57.394531 186.570312 L 57.953125 186.570312 C 58.191406 186.570312 58.375 186.503906 58.503906 186.367188 C 58.636719 186.230469 58.699219 186.035156 58.699219 185.773438 L 58.699219 182.703125 C 58.699219 181.71875 58.972656 180.96875 59.515625 180.449219 C 60.058594 179.929688 60.855469 179.667969 61.90625 179.667969 L 62.890625 179.667969 L 62.890625 181.738281 L 62.585938 181.738281 C 62.175781 181.738281 61.871094 181.84375 61.660156 182.058594 C 61.449219 182.273438 61.347656 182.585938 61.347656 182.992188 L 61.347656 185.707031 C 61.347656 186.285156 61.253906 186.714844 61.074219 186.996094 Z M 72.203125 188.640625 L 69.25 188.640625 L 69.25 191.523438 L 67.0625 191.523438 L 67.0625 188.640625 L 64.128906 188.640625 L 64.128906 186.570312 L 67.0625 186.570312 L 67.0625 183.6875 L 69.25 183.6875 L 69.25 186.570312 L 72.203125 186.570312 Z M 78.988281 186.570312 L 78.988281 188.640625 L 78.429688 188.640625 C 78.191406 188.640625 78.007812 188.710938 77.878906 188.84375 C 77.746094 188.980469 77.683594 189.179688 77.683594 189.4375 L 77.683594 192.507812 C 77.683594 193.492188 77.410156 194.246094 76.867188 194.765625 C 76.324219 195.285156 75.527344 195.546875 74.476562 195.546875 L 73.492188 195.546875 L 73.492188 193.476562 L 73.796875 193.476562 C 74.207031 193.476562 74.511719 193.367188 74.722656 193.152344 C 74.933594 192.9375 75.035156 192.628906 75.035156 192.21875 L 75.035156 189.507812 C 75.035156 188.929688 75.125 188.5 75.308594 188.214844 C 75.488281 187.933594 75.777344 187.730469 76.171875 187.605469 C 75.777344 187.480469 75.488281 187.277344 75.308594 186.996094 C 75.125 186.710938 75.035156 186.28125 75.035156 185.707031 L 75.035156 182.992188 C 75.035156 182.585938 74.929688 182.273438 74.722656 182.058594 C 74.511719 181.84375 74.207031 181.738281 73.796875 181.738281 L 73.492188 181.738281 L 73.492188 179.667969 L 74.476562 179.667969 C 75.527344 179.667969 76.324219 179.929688 76.867188 180.449219 C 77.410156 180.96875 77.683594 181.71875 77.683594 182.703125 L 77.683594 185.773438 C 77.683594 186.035156 77.746094 186.230469 77.878906 186.367188 C 78.007812 186.503906 78.191406 186.570312 78.429688 186.570312 Z M 78.988281 186.570312 " fill-opacity="1" fill-rule="nonzero"/></g><g clip-path="url(#5bb055a0e4)"><path fill="#000000" d="M 308.097656 179.5 C 307.984375 179.464844 307.859375 179.441406 307.742188 179.441406 C 307.257812 179.441406 306.828125 179.753906 306.675781 180.210938 L 302.175781 193.710938 C 302.132812 193.824219 302.117188 193.945312 302.117188 194.066406 C 302.117188 194.6875 302.625 195.191406 303.242188 195.191406 C 303.726562 195.191406 304.15625 194.878906 304.308594 194.421875 L 308.808594 180.921875 C 308.847656 180.808594 308.867188 180.6875 308.867188 180.566406 C 308.867188 180.082031 308.554688 179.652344 308.097656 179.5 " fill-opacity="1" fill-rule="nonzero"/></g><g clip-path="url(#b4a2855aa8)"><path fill="#000000" d="M 299.539062 182.023438 C 299.328125 181.8125 299.039062 181.691406 298.742188 181.691406 C 298.441406 181.691406 298.15625 181.8125 297.945312 182.023438 L 293.445312 186.523438 C 293.234375 186.734375 293.117188 187.019531 293.117188 187.316406 C 293.117188 187.617188 293.234375 187.902344 293.445312 188.113281 L 297.945312 192.613281 C 298.15625 192.816406 298.4375 192.929688 298.730469 192.929688 C 299.34375 192.929688 299.855469 192.417969 299.855469 191.804688 C 299.855469 191.515625 299.738281 191.234375 299.539062 191.023438 L 295.832031 187.316406 L 299.539062 183.613281 C 299.75 183.402344 299.867188 183.117188 299.867188 182.816406 C 299.867188 182.519531 299.75 182.234375 299.539062 182.023438 " fill-opacity="1" fill-rule="nonzero"/></g><g clip-path="url(#74ccfa6a91)"><path fill="#000000" d="M 317.539062 186.523438 L 313.039062 182.023438 C 312.828125 181.820312 312.546875 181.707031 312.253906 181.707031 C 311.640625 181.707031 311.128906 182.214844 311.128906 182.832031 C 311.128906 183.121094 311.246094 183.402344 311.445312 183.613281 L 315.152344 187.316406 L 311.445312 191.023438 C 311.226562 191.234375 311.105469 191.527344 311.105469 191.832031 C 311.105469 192.449219 311.609375 192.957031 312.230469 192.957031 C 312.53125 192.957031 312.828125 192.832031 313.039062 192.613281 L 317.539062 188.113281 C 317.75 187.902344 317.867188 187.617188 317.867188 187.316406 C 317.867188 187.019531 317.75 186.734375 317.539062 186.523438 " fill-opacity="1" fill-rule="nonzero"/></g><g fill="#000000" fill-opacity="1"><g transform="translate(94.715668, 130.951513)"><g><path d="M -10.84375 -26.828125 C -9.707031 -28.304688 -8.585938 -29.445312 -7.484375 -30.25 C -6.378906 -31.050781 -5.175781 -31.640625 -3.875 -32.015625 C -3.5625 -32.117188 -3.1875 -32.15625 -2.75 -32.125 C -2.320312 -32.09375 -1.894531 -31.914062 -1.46875 -31.59375 C -0.875 -31.132812 -0.523438 -30.539062 -0.421875 -29.8125 C -0.328125 -29.09375 -0.503906 -28.441406 -0.953125 -27.859375 C -1.191406 -27.546875 -1.441406 -27.320312 -1.703125 -27.1875 C -1.960938 -27.050781 -2.203125 -26.953125 -2.421875 -26.890625 C -3.296875 -26.617188 -4.097656 -26.25 -4.828125 -25.78125 C -5.554688 -25.320312 -6.28125 -24.617188 -7 -23.671875 C -7.601562 -22.898438 -8 -22.046875 -8.1875 -21.109375 C -8.375 -20.171875 -8.390625 -19.238281 -8.234375 -18.3125 C -8.078125 -17.394531 -7.742188 -16.507812 -7.234375 -15.65625 C -6.734375 -14.8125 -6.066406 -14.066406 -5.234375 -13.421875 L -5.171875 -13.390625 C -4.285156 -12.703125 -3.351562 -12.21875 -2.375 -11.9375 C -1.40625 -11.65625 -0.445312 -11.566406 0.5 -11.671875 C 1.457031 -11.773438 2.363281 -12.070312 3.21875 -12.5625 C 4.082031 -13.050781 4.84375 -13.71875 5.5 -14.5625 C 6.738281 -16.175781 7.382812 -17.816406 7.4375 -19.484375 L 4.65625 -21.609375 L 2.4375 -18.71875 C 2.039062 -18.195312 1.523438 -17.890625 0.890625 -17.796875 C 0.265625 -17.710938 -0.304688 -17.867188 -0.828125 -18.265625 C -1.335938 -18.660156 -1.632812 -19.175781 -1.71875 -19.8125 C -1.8125 -20.445312 -1.660156 -21.023438 -1.265625 -21.546875 L 2.484375 -26.4375 C 2.929688 -27.03125 3.523438 -27.378906 4.265625 -27.484375 C 5.003906 -27.585938 5.671875 -27.410156 6.265625 -26.953125 L 11 -23.328125 C 12.195312 -22.410156 12.71875 -21.210938 12.5625 -19.734375 C 12.4375 -18.578125 12.140625 -17.269531 11.671875 -15.8125 C 11.203125 -14.363281 10.40625 -12.910156 9.28125 -11.453125 C 8.125 -9.929688 6.816406 -8.734375 5.359375 -7.859375 C 3.898438 -6.992188 2.382812 -6.453125 0.8125 -6.234375 C -0.757812 -6.023438 -2.347656 -6.132812 -3.953125 -6.5625 C -5.566406 -7 -7.097656 -7.769531 -8.546875 -8.875 L -8.59375 -8.921875 C -9.988281 -9.984375 -11.09375 -11.234375 -11.90625 -12.671875 C -12.726562 -14.109375 -13.253906 -15.628906 -13.484375 -17.234375 C -13.710938 -18.847656 -13.609375 -20.484375 -13.171875 -22.140625 C -12.734375 -23.804688 -11.957031 -25.367188 -10.84375 -26.828125 Z M -10.84375 -26.828125 "/></g></g></g><g fill="#000000" fill-opacity="1"><g transform="translate(118.614099, 102.841183)"><g><path d="M 0.9375 -3.875 L -9.703125 -19.765625 C -10.109375 -20.378906 -10.238281 -21.050781 -10.09375 -21.78125 C -9.945312 -22.507812 -9.5625 -23.082031 -8.9375 -23.5 L 2.34375 -31.046875 C 2.90625 -31.429688 3.507812 -31.554688 4.15625 -31.421875 C 4.800781 -31.285156 5.3125 -30.9375 5.6875 -30.375 C 6.0625 -29.8125 6.179688 -29.210938 6.046875 -28.578125 C 5.910156 -27.953125 5.5625 -27.445312 5 -27.0625 L -4.078125 -20.984375 L -1.3125 -16.859375 L 6.453125 -22.0625 C 7.015625 -22.4375 7.617188 -22.554688 8.265625 -22.421875 C 8.921875 -22.296875 9.441406 -21.953125 9.828125 -21.390625 C 10.191406 -20.835938 10.304688 -20.238281 10.171875 -19.59375 C 10.035156 -18.945312 9.6875 -18.4375 9.125 -18.0625 L 1.359375 -12.859375 L 4.21875 -8.59375 L 13.4375 -14.765625 C 14 -15.148438 14.601562 -15.273438 15.25 -15.140625 C 15.90625 -15.015625 16.421875 -14.671875 16.796875 -14.109375 C 17.179688 -13.546875 17.300781 -12.945312 17.15625 -12.3125 C 17.019531 -11.675781 16.671875 -11.164062 16.109375 -10.78125 L 4.6875 -3.140625 C 4.0625 -2.722656 3.382812 -2.585938 2.65625 -2.734375 C 1.925781 -2.878906 1.351562 -3.257812 0.9375 -3.875 Z M 0.9375 -3.875 "/></g></g></g><g fill="#000000" fill-opacity="1"><g transform="translate(146.681197, 85.522257)"><g><path d="M 2.203125 -3.140625 L -2.84375 -21.953125 C -3.03125 -22.679688 -2.9375 -23.363281 -2.5625 -24 C -2.195312 -24.644531 -1.648438 -25.066406 -0.921875 -25.265625 L -0.40625 -25.40625 C 0.226562 -25.570312 0.785156 -25.566406 1.265625 -25.390625 C 1.753906 -25.222656 2.238281 -24.960938 2.71875 -24.609375 L 16.296875 -14.109375 L 13.03125 -26.3125 C 12.832031 -27.03125 12.910156 -27.703125 13.265625 -28.328125 C 13.628906 -28.960938 14.171875 -29.375 14.890625 -29.5625 C 15.609375 -29.757812 16.28125 -29.675781 16.90625 -29.3125 C 17.539062 -28.957031 17.957031 -28.421875 18.15625 -27.703125 L 23.203125 -8.875 C 23.390625 -8.15625 23.296875 -7.472656 22.921875 -6.828125 C 22.554688 -6.179688 22.015625 -5.757812 21.296875 -5.5625 L 21.125 -5.515625 C 20.488281 -5.347656 19.929688 -5.347656 19.453125 -5.515625 C 18.972656 -5.691406 18.492188 -5.960938 18.015625 -6.328125 L 3.953125 -17.1875 L 7.34375 -4.515625 C 7.539062 -3.785156 7.453125 -3.101562 7.078125 -2.46875 C 6.710938 -1.84375 6.171875 -1.4375 5.453125 -1.25 C 4.734375 -1.050781 4.0625 -1.132812 3.4375 -1.5 C 2.8125 -1.863281 2.398438 -2.410156 2.203125 -3.140625 Z M 2.203125 -3.140625 "/></g></g></g><g fill="#000000" fill-opacity="1"><g transform="translate(182.954145, 77.764236)"><g><path d="M 3.109375 -2.5 L 4.375 -21.578125 C 4.425781 -22.316406 4.726562 -22.929688 5.28125 -23.421875 C 5.832031 -23.910156 6.484375 -24.128906 7.234375 -24.078125 L 20.78125 -23.1875 C 21.457031 -23.144531 22.007812 -22.875 22.4375 -22.375 C 22.875 -21.875 23.070312 -21.285156 23.03125 -20.609375 C 22.988281 -19.929688 22.71875 -19.378906 22.21875 -18.953125 C 21.726562 -18.535156 21.144531 -18.347656 20.46875 -18.390625 L 9.578125 -19.109375 L 9.25 -14.15625 L 18.578125 -13.546875 C 19.242188 -13.492188 19.796875 -13.21875 20.234375 -12.71875 C 20.671875 -12.21875 20.867188 -11.628906 20.828125 -10.953125 C 20.785156 -10.285156 20.515625 -9.738281 20.015625 -9.3125 C 19.515625 -8.894531 18.929688 -8.710938 18.265625 -8.765625 L 8.9375 -9.375 L 8.59375 -4.234375 L 19.65625 -3.5 C 20.332031 -3.457031 20.890625 -3.1875 21.328125 -2.6875 C 21.765625 -2.195312 21.960938 -1.613281 21.921875 -0.9375 C 21.878906 -0.257812 21.609375 0.285156 21.109375 0.703125 C 20.609375 1.128906 20.019531 1.320312 19.34375 1.28125 L 5.625 0.375 C 4.875 0.320312 4.253906 0.015625 3.765625 -0.546875 C 3.285156 -1.109375 3.066406 -1.757812 3.109375 -2.5 Z M 3.109375 -2.5 "/></g></g></g><g fill="#000000" fill-opacity="1"><g transform="translate(215.819039, 81.327307)"><g><path d="M 10.890625 -19.125 C 11.171875 -19.8125 11.65625 -20.300781 12.34375 -20.59375 C 13.03125 -20.882812 13.722656 -20.890625 14.421875 -20.609375 L 22.296875 -17.421875 C 23.503906 -16.929688 24.5625 -16.320312 25.46875 -15.59375 C 26.382812 -14.863281 27.101562 -14.039062 27.625 -13.125 C 28.144531 -12.207031 28.4375 -11.1875 28.5 -10.0625 C 28.5625 -8.9375 28.335938 -7.734375 27.828125 -6.453125 L 27.796875 -6.390625 C 27.066406 -4.566406 26.0625 -3.265625 24.78125 -2.484375 C 23.507812 -1.703125 22.070312 -1.316406 20.46875 -1.328125 L 22.21875 4.296875 C 22.34375 4.703125 22.421875 5.082031 22.453125 5.4375 C 22.484375 5.789062 22.421875 6.160156 22.265625 6.546875 C 21.984375 7.234375 21.515625 7.6875 20.859375 7.90625 C 20.210938 8.132812 19.582031 8.128906 18.96875 7.890625 C 18.40625 7.660156 17.976562 7.34375 17.6875 6.9375 C 17.394531 6.539062 17.175781 6.097656 17.03125 5.609375 L 14.65625 -2.53125 L 10.65625 -4.140625 L 8.65625 0.828125 C 8.375 1.515625 7.890625 2 7.203125 2.28125 C 6.523438 2.570312 5.84375 2.578125 5.15625 2.296875 C 4.457031 2.015625 3.960938 1.53125 3.671875 0.84375 C 3.378906 0.164062 3.375 -0.515625 3.65625 -1.203125 Z M 15.078125 -15.078125 L 12.4375 -8.546875 L 17.515625 -6.5 C 18.734375 -6.007812 19.789062 -5.921875 20.6875 -6.234375 C 21.582031 -6.546875 22.226562 -7.191406 22.625 -8.171875 L 22.65625 -8.25 C 23.101562 -9.34375 23.085938 -10.296875 22.609375 -11.109375 C 22.140625 -11.921875 21.285156 -12.578125 20.046875 -13.078125 Z M 15.078125 -15.078125 "/></g></g></g><g fill="#000000" fill-opacity="1"><g transform="translate(247.676806, 96.643489)"><g><path d="M 15.90625 -15.546875 C 16.363281 -16.140625 16.957031 -16.484375 17.6875 -16.578125 C 18.414062 -16.679688 19.078125 -16.507812 19.671875 -16.0625 C 20.265625 -15.601562 20.613281 -15.003906 20.71875 -14.265625 C 20.820312 -13.523438 20.644531 -12.859375 20.1875 -12.265625 L 8.328125 3.25 C 7.867188 3.84375 7.269531 4.179688 6.53125 4.265625 C 5.800781 4.359375 5.140625 4.175781 4.546875 3.71875 C 3.953125 3.269531 3.601562 2.679688 3.5 1.953125 C 3.40625 1.222656 3.585938 0.5625 4.046875 -0.03125 Z M 15.90625 -15.546875 "/></g></g></g><g fill="#000000" fill-opacity="1"><g transform="translate(264.856764, 110.327878)"><g><path d="M 28.703125 -3.34375 C 29.816406 -1.875 30.585938 -0.5 31.015625 0.78125 C 31.453125 2.070312 31.664062 3.375 31.65625 4.6875 C 31.65625 5.039062 31.566406 5.410156 31.390625 5.796875 C 31.222656 6.191406 30.957031 6.53125 30.59375 6.8125 C 30 7.257812 29.34375 7.425781 28.625 7.3125 C 27.914062 7.207031 27.335938 6.859375 26.890625 6.265625 C 26.671875 5.972656 26.53125 5.6875 26.46875 5.40625 C 26.40625 5.132812 26.363281 4.890625 26.34375 4.671875 C 26.34375 3.734375 26.21875 2.847656 25.96875 2.015625 C 25.726562 1.191406 25.3125 0.390625 24.71875 -0.390625 C 24.101562 -1.203125 23.375 -1.835938 22.53125 -2.296875 C 21.6875 -2.753906 20.796875 -3.019531 19.859375 -3.09375 C 18.921875 -3.175781 17.972656 -3.082031 17.015625 -2.8125 C 16.066406 -2.539062 15.175781 -2.085938 14.34375 -1.453125 L 14.296875 -1.40625 C 13.453125 -0.78125 12.765625 -0.046875 12.234375 0.796875 C 11.703125 1.640625 11.34375 2.519531 11.15625 3.4375 C 10.96875 4.351562 10.972656 5.285156 11.171875 6.234375 C 11.367188 7.179688 11.785156 8.070312 12.421875 8.90625 C 13.109375 9.820312 13.832031 10.507812 14.59375 10.96875 C 15.351562 11.4375 16.207031 11.773438 17.15625 11.984375 C 17.757812 12.128906 18.242188 12.445312 18.609375 12.9375 C 19.023438 13.46875 19.1875 14.078125 19.09375 14.765625 C 19 15.460938 18.679688 16.015625 18.140625 16.421875 C 17.804688 16.679688 17.46875 16.828125 17.125 16.859375 C 16.78125 16.898438 16.429688 16.90625 16.078125 16.875 C 14.617188 16.613281 13.265625 16.085938 12.015625 15.296875 C 10.765625 14.515625 9.539062 13.335938 8.34375 11.765625 C 7.257812 10.316406 6.515625 8.78125 6.109375 7.15625 C 5.710938 5.539062 5.628906 3.945312 5.859375 2.375 C 6.085938 0.8125 6.625 -0.6875 7.46875 -2.125 C 8.320312 -3.5625 9.445312 -4.804688 10.84375 -5.859375 L 10.90625 -5.890625 C 12.300781 -6.953125 13.796875 -7.6875 15.390625 -8.09375 C 16.984375 -8.507812 18.578125 -8.617188 20.171875 -8.421875 C 21.773438 -8.234375 23.3125 -7.71875 24.78125 -6.875 C 26.257812 -6.03125 27.566406 -4.851562 28.703125 -3.34375 Z M 28.703125 -3.34375 "/></g></g></g><g fill="#000000" fill-opacity="1"><g transform="translate(106.722103, 293.756949)"><g><path d="M 7.140625 -3.890625 C 7.429688 -3.691406 7.65625 -3.484375 7.8125 -3.265625 C 7.96875 -3.046875 8.085938 -2.835938 8.171875 -2.640625 C 8.609375 -1.566406 9.148438 -0.59375 9.796875 0.28125 C 10.453125 1.164062 11.285156 1.929688 12.296875 2.578125 C 13.242188 3.171875 14.085938 3.457031 14.828125 3.4375 C 15.566406 3.425781 16.128906 3.117188 16.515625 2.515625 L 16.5625 2.453125 C 16.738281 2.160156 16.84375 1.863281 16.875 1.5625 C 16.914062 1.257812 16.847656 0.910156 16.671875 0.515625 C 16.503906 0.117188 16.207031 -0.335938 15.78125 -0.859375 C 15.363281 -1.390625 14.785156 -2.046875 14.046875 -2.828125 C 13.171875 -3.742188 12.40625 -4.617188 11.75 -5.453125 C 11.09375 -6.296875 10.613281 -7.144531 10.3125 -8 C 10.019531 -8.851562 9.929688 -9.722656 10.046875 -10.609375 C 10.160156 -11.503906 10.546875 -12.460938 11.203125 -13.484375 L 11.234375 -13.546875 C 11.828125 -14.492188 12.539062 -15.234375 13.375 -15.765625 C 14.21875 -16.304688 15.132812 -16.648438 16.125 -16.796875 C 17.125 -16.941406 18.15625 -16.878906 19.21875 -16.609375 C 20.289062 -16.335938 21.363281 -15.867188 22.4375 -15.203125 C 24.9375 -13.609375 26.734375 -11.617188 27.828125 -9.234375 C 27.992188 -8.898438 28.082031 -8.519531 28.09375 -8.09375 C 28.113281 -7.664062 27.984375 -7.226562 27.703125 -6.78125 C 27.328125 -6.1875 26.804688 -5.816406 26.140625 -5.671875 C 25.472656 -5.535156 24.84375 -5.65625 24.25 -6.03125 C 23.832031 -6.289062 23.507812 -6.640625 23.28125 -7.078125 C 22.382812 -8.953125 21.234375 -10.332031 19.828125 -11.21875 C 18.941406 -11.78125 18.164062 -12.03125 17.5 -11.96875 C 16.84375 -11.90625 16.351562 -11.617188 16.03125 -11.109375 L 16 -11.046875 C 15.769531 -10.691406 15.640625 -10.351562 15.609375 -10.03125 C 15.585938 -9.71875 15.679688 -9.363281 15.890625 -8.96875 C 16.109375 -8.570312 16.453125 -8.09375 16.921875 -7.53125 C 17.390625 -6.96875 17.988281 -6.289062 18.71875 -5.5 C 19.59375 -4.550781 20.332031 -3.644531 20.9375 -2.78125 C 21.539062 -1.925781 21.96875 -1.078125 22.21875 -0.234375 C 22.476562 0.609375 22.546875 1.441406 22.421875 2.265625 C 22.296875 3.097656 21.941406 3.96875 21.359375 4.875 L 21.328125 4.921875 C 20.679688 5.953125 19.914062 6.742188 19.03125 7.296875 C 18.144531 7.859375 17.195312 8.195312 16.1875 8.3125 C 15.175781 8.4375 14.113281 8.347656 13 8.046875 C 11.894531 7.753906 10.78125 7.25 9.65625 6.53125 C 8.289062 5.664062 7.082031 4.609375 6.03125 3.359375 C 4.976562 2.109375 4.125 0.695312 3.46875 -0.875 C 3.320312 -1.21875 3.265625 -1.585938 3.296875 -1.984375 C 3.328125 -2.390625 3.457031 -2.773438 3.6875 -3.140625 C 4.0625 -3.734375 4.582031 -4.097656 5.25 -4.234375 C 5.914062 -4.367188 6.546875 -4.253906 7.140625 -3.890625 Z M 7.140625 -3.890625 "/></g></g></g><g fill="#000000" fill-opacity="1"><g transform="translate(141.271815, 312.873779)"><g><path d="M 11.3125 -22.578125 C 12.039062 -22.390625 12.585938 -21.976562 12.953125 -21.34375 C 13.328125 -20.707031 13.421875 -20.023438 13.234375 -19.296875 L 10.375 -8.296875 C 9.851562 -6.304688 9.910156 -4.710938 10.546875 -3.515625 C 11.191406 -2.328125 12.332031 -1.519531 13.96875 -1.09375 C 15.582031 -0.675781 16.957031 -0.816406 18.09375 -1.515625 C 19.238281 -2.222656 20.0625 -3.535156 20.5625 -5.453125 L 23.46875 -16.625 C 23.65625 -17.351562 24.066406 -17.90625 24.703125 -18.28125 C 25.347656 -18.65625 26.03125 -18.75 26.75 -18.5625 C 27.476562 -18.375 28.03125 -17.957031 28.40625 -17.3125 C 28.78125 -16.675781 28.875 -15.992188 28.6875 -15.265625 L 25.828125 -4.296875 C 25.367188 -2.515625 24.722656 -1.015625 23.890625 0.203125 C 23.054688 1.421875 22.066406 2.351562 20.921875 3 C 19.773438 3.65625 18.507812 4.035156 17.125 4.140625 C 15.738281 4.253906 14.242188 4.101562 12.640625 3.6875 C 9.453125 2.863281 7.175781 1.332031 5.8125 -0.90625 C 4.445312 -3.144531 4.21875 -6.015625 5.125 -9.515625 L 8.03125 -20.65625 C 8.21875 -21.382812 8.628906 -21.929688 9.265625 -22.296875 C 9.898438 -22.671875 10.582031 -22.765625 11.3125 -22.578125 Z M 11.3125 -22.578125 "/></g></g></g><g fill="#000000" fill-opacity="1"><g transform="translate(183.458408, 320.594436)"><g><path d="M 2.9375 -22.046875 C 2.925781 -22.796875 3.179688 -23.429688 3.703125 -23.953125 C 4.222656 -24.484375 4.851562 -24.753906 5.59375 -24.765625 C 6.34375 -24.773438 6.984375 -24.519531 7.515625 -24 C 8.046875 -23.488281 8.316406 -22.859375 8.328125 -22.109375 L 8.546875 -2.578125 C 8.554688 -1.828125 8.300781 -1.1875 7.78125 -0.65625 C 7.257812 -0.132812 6.625 0.128906 5.875 0.140625 C 5.132812 0.148438 4.5 -0.0976562 3.96875 -0.609375 C 3.4375 -1.128906 3.164062 -1.765625 3.15625 -2.515625 Z M 2.9375 -22.046875 "/></g></g></g><g fill="#000000" fill-opacity="1"><g transform="translate(211.544881, 318.908631)"><g><path d="M -4.75 -21.515625 C -4.914062 -22.171875 -4.828125 -22.800781 -4.484375 -23.40625 C -4.140625 -24.007812 -3.644531 -24.394531 -3 -24.5625 L 12.21875 -28.640625 C 12.875 -28.816406 13.503906 -28.726562 14.109375 -28.375 C 14.710938 -28.03125 15.097656 -27.53125 15.265625 -26.875 C 15.441406 -26.21875 15.351562 -25.585938 15 -24.984375 C 14.65625 -24.390625 14.15625 -24.003906 13.5 -23.828125 L 8.484375 -22.484375 L 12.90625 -6.03125 C 13.09375 -5.300781 13 -4.613281 12.625 -3.96875 C 12.257812 -3.332031 11.71875 -2.921875 11 -2.734375 C 10.28125 -2.535156 9.597656 -2.617188 8.953125 -2.984375 C 8.304688 -3.359375 7.890625 -3.910156 7.703125 -4.640625 L 3.28125 -21.09375 L -1.71875 -19.75 C -2.363281 -19.582031 -2.984375 -19.671875 -3.578125 -20.015625 C -4.179688 -20.359375 -4.570312 -20.859375 -4.75 -21.515625 Z M -4.75 -21.515625 "/></g></g></g><g fill="#000000" fill-opacity="1"><g transform="translate(249.077619, 306.290482)"><g><path d="M 1.0625 -3.84375 L -9.109375 -20.046875 C -9.503906 -20.671875 -9.613281 -21.34375 -9.4375 -22.0625 C -9.269531 -22.789062 -8.867188 -23.351562 -8.234375 -23.75 L 3.265625 -30.96875 C 3.835938 -31.320312 4.441406 -31.425781 5.078125 -31.28125 C 5.710938 -31.132812 6.210938 -30.773438 6.578125 -30.203125 C 6.941406 -29.628906 7.046875 -29.023438 6.890625 -28.390625 C 6.742188 -27.753906 6.382812 -27.257812 5.8125 -26.90625 L -3.4375 -21.09375 L -0.796875 -16.890625 L 7.109375 -21.859375 C 7.679688 -22.222656 8.289062 -22.328125 8.9375 -22.171875 C 9.59375 -22.023438 10.097656 -21.660156 10.453125 -21.078125 C 10.804688 -20.515625 10.90625 -19.914062 10.75 -19.28125 C 10.59375 -18.65625 10.226562 -18.160156 9.65625 -17.796875 L 1.75 -12.828125 L 4.484375 -8.46875 L 13.875 -14.375 C 14.445312 -14.726562 15.054688 -14.832031 15.703125 -14.6875 C 16.359375 -14.539062 16.863281 -14.179688 17.21875 -13.609375 C 17.582031 -13.035156 17.679688 -12.429688 17.515625 -11.796875 C 17.359375 -11.160156 16.992188 -10.664062 16.421875 -10.3125 L 4.78125 -3 C 4.144531 -2.601562 3.460938 -2.488281 2.734375 -2.65625 C 2.003906 -2.820312 1.445312 -3.21875 1.0625 -3.84375 Z M 1.0625 -3.84375 "/></g></g></g></svg>